  0
SECTION
  2
BLOCKS
  0
ENDSEC
  0
SECTION
  2
ENTITIES
  0
LINE
  8
0
 10
-71.6398
 20
-58.0351
 11
-71.6109
 21
-58.0719
  0
LINE
  8
0
 10
-71.6109
 20
-58.0719
 11
-65.4063
 21
-65.9599
  0
LINE
  8
0
 10
-65.4063
 20
-65.9599
 11
-60.8695
 21
-71.7277
  0
LINE
  8
0
 10
-60.8695
 20
-71.7277
 11
-59.7636
 21
-74.6396
  0
LINE
  8
0
 10
-59.7636
 20
-74.6396
 11
-59.3189
 21
-75.8104
  0
LINE
  8
0
 10
-59.3189
 20
-75.8104
 11
-59.2748
 21
-75.8661
  0
LINE
  8
0
 10
-59.2748
 20
-75.8661
 11
-56.1606
 21
-79.8003
  0
LINE
  8
0
 10
-56.1606
 20
-79.8003
 11
-48.4923
 21
-89.488
  0
LINE
  8
0
 10
-48.4923
 20
-89.488
 11
-48.4429
 21
-89.5504
  0
LINE
  8
0
 10
-48.4429
 20
-89.5504
 11
-42.6899
 21
-90.9056
  0
LINE
  8
0
 10
-42.6899
 20
-90.9056
 11
-39.3609
 21
-91.6897
  0
LINE
  8
0
 10
-39.3609
 20
-91.6897
 11
-34.8548
 21
-88.5345
  0
LINE
  8
0
 10
-34.8548
 20
-88.5345
 11
-34.8545
 21
-88.5343
  0
LINE
  8
0
 10
-34.8545
 20
-88.5343
 11
-27.5312
 21
-83.4064
  0
LINE
  8
0
 10
-27.5312
 20
-83.4064
 11
-27.4554
 21
-83.5435
  0
LINE
  8
0
 10
-27.4554
 20
-83.5435
 11
-27.4554
 21
-83.5435
  0
LINE
  8
0
 10
-27.4554
 20
-83.5435
 11
-27.423
 21
-83.5284
  0
LINE
  8
0
 10
-27.423
 20
-83.5284
 11
-18.1797
 21
-79.2182
  0
LINE
  8
0
 10
-18.1797
 20
-79.2182
 11
-12.3531
 21
-76.5012
  0
LINE
  8
0
 10
-12.3531
 20
-76.5012
 11
-11.4925
 21
-75.501
  0
LINE
  8
0
 10
-11.4925
 20
-75.501
 11
-11.114
 21
-75.0612
  0
LINE
  8
0
 10
-11.114
 20
-75.0612
 11
-9.95307
 21
-69.5009
  0
LINE
  8
0
 10
-9.95307
 20
-69.5009
 11
-7.1216
 21
-55.9397
  0
LINE
  8
0
 10
-7.1216
 20
-55.9397
 11
-1.09952
 21
-57.3118
  0
LINE
  8
0
 10
-1.09952
 20
-57.3118
 11
15.2719
 21
-61.0419
  0
LINE
  8
0
 10
15.2719
 20
-61.0419
 11
20.9543
 21
-61.0419
  0
LINE
  8
0
 10
20.9543
 20
-61.0419
 11
20.9891
 21
-61.0419
  0
LINE
  8
0
 10
20.9891
 20
-61.0419
 11
33.0994
 21
-61.0419
  0
LINE
  8
0
 10
33.0994
 20
-61.0419
 11
35.7984
 21
-54.7459
  0
LINE
  8
0
 10
35.7984
 20
-54.7459
 11
37.0725
 21
-51.7736
  0
LINE
  8
0
 10
37.0725
 20
-51.7736
 11
45.4372
 21
-51.7736
  0
LINE
  8
0
 10
45.4372
 20
-51.7736
 11
54.9304
 21
-51.7736
  0
LINE
  8
0
 10
54.9304
 20
-51.7736
 11
56.4296
 21
-51.7736
  0
LINE
  8
0
 10
56.4296
 20
-51.7736
 11
76.1716
 21
-51.7736
  0
LINE
  8
0
 10
76.1716
 20
-51.7736
 11
79.861
 21
-48.2099
  0
LINE
  8
0
 10
79.861
 20
-48.2099
 11
83.1716
 21
-45.0122
  0
LINE
  8
0
 10
83.1716
 20
-45.0122
 11
89.2033
 21
-26.9421
  0
LINE
  8
0
 10
89.2033
 20
-26.9421
 11
91.3286
 21
-20.575
  0
LINE
  8
0
 10
91.3286
 20
-20.575
 11
91.3286
 21
-1.40424
  0
LINE
  8
0
 10
91.3286
 20
-1.40424
 11
91.3286
 21
4.26422
  0
LINE
  8
0
 10
91.3286
 20
4.26422
 11
91.3286
 21
9.39246
  0
LINE
  8
0
 10
91.3286
 20
9.39246
 11
91.3286
 21
20.7486
  0
LINE
  8
0
 10
91.3286
 20
20.7486
 11
91.3286
 21
24.1485
  0
LINE
  8
0
 10
91.3286
 20
24.1485
 11
91.3286
 21
24.2048
  0
LINE
  8
0
 10
91.3286
 20
24.2048
 11
91.3286
 21
27.9839
  0
LINE
  8
0
 10
91.3286
 20
27.9839
 11
91.3286
 21
35.99
  0
LINE
  8
0
 10
91.3286
 20
35.99
 11
91.3286
 21
42.7607
  0
LINE
  8
0
 10
91.3286
 20
42.7607
 11
91.3286
 21
46.9132
  0
LINE
  8
0
 10
91.3286
 20
46.9132
 11
91.3286
 21
46.9451
  0
LINE
  8
0
 10
91.3286
 20
46.9451
 11
91.3286
 21
48.9687
  0
LINE
  8
0
 10
91.3286
 20
48.9687
 11
91.3286
 21
57.5792
  0
LINE
  8
0
 10
91.3286
 20
57.5792
 11
91.3286
 21
61.03
  0
LINE
  8
0
 10
91.3286
 20
61.03
 11
91.3286
 21
61.045
  0
LINE
  8
0
 10
91.3286
 20
61.045
 11
89.9798
 21
61.9988
  0
LINE
  8
0
 10
89.9798
 20
61.9988
 11
84.3286
 21
65.9948
  0
LINE
  8
0
 10
84.3286
 20
65.9948
 11
83.2418
 21
66.0246
  0
LINE
  8
0
 10
83.2418
 20
66.0246
 11
78.6716
 21
66.1502
  0
LINE
  8
0
 10
78.6716
 20
66.1502
 11
58.2196
 21
66.1502
  0
LINE
  8
0
 10
58.2196
 20
66.1502
 11
57.6721
 21
66.1502
  0
LINE
  8
0
 10
57.6721
 20
66.1502
 11
43.1637
 21
66.1502
  0
LINE
  8
0
 10
43.1637
 20
66.1502
 11
39.8264
 21
66.1502
  0
LINE
  8
0
 10
39.8264
 20
66.1502
 11
39.1037
 21
68.5967
  0
LINE
  8
0
 10
39.1037
 20
68.5967
 11
36.2815
 21
78.1502
  0
LINE
  8
0
 10
36.2815
 20
78.1502
 11
22.0885
 21
78.1502
  0
LINE
  8
0
 10
22.0885
 20
78.1502
 11
22.0672
 21
78.1502
  0
LINE
  8
0
 10
22.0672
 20
78.1502
 11
18.5524
 21
78.1502
  0
LINE
  8
0
 10
18.5524
 20
78.1502
 11
17.9154
 21
79.9763
  0
LINE
  8
0
 10
17.9154
 20
79.9763
 11
15.4756
 21
86.9702
  0
LINE
  8
0
 10
15.4756
 20
86.9702
 11
1.61002
 21
86.9702
  0
LINE
  8
0
 10
1.61002
 20
86.9702
 11
1.58811
 21
86.9702
  0
LINE
  8
0
 10
1.58811
 20
86.9702
 11
-2.01012
 21
86.9702
  0
LINE
  8
0
 10
-2.01012
 20
86.9702
 11
-2.08471
 21
86.682
  0
LINE
  8
0
 10
-2.08471
 20
86.682
 11
-2.39444
 21
85.4853
  0
LINE
  8
0
 10
-2.39444
 20
85.4853
 11
-2.54457
 21
83.9218
  0
LINE
  8
0
 10
-2.54457
 20
83.9218
 11
-3.09875
 21
78.1502
  0
LINE
  8
0
 10
-3.09875
 20
78.1502
 11
-16.7052
 21
78.1502
  0
LINE
  8
0
 10
-16.7052
 20
78.1502
 11
-16.7232
 21
78.1502
  0
LINE
  8
0
 10
-16.7232
 20
78.1502
 11
-19.6356
 21
78.1502
  0
LINE
  8
0
 10
-19.6356
 20
78.1502
 11
-21.3372
 21
78.1502
  0
LINE
  8
0
 10
-21.3372
 20
78.1502
 11
-21.6538
 21
78.1502
  0
LINE
  8
0
 10
-21.6538
 20
78.1502
 11
-35.4407
 21
78.1502
  0
LINE
  8
0
 10
-35.4407
 20
78.1502
 11
-37.9837
 21
78.1502
  0
LINE
  8
0
 10
-37.9837
 20
78.1502
 11
-45.4703
 21
74.7095
  0
LINE
  8
0
 10
-45.4703
 20
74.7095
 11
-46.676
 21
74.1553
  0
LINE
  8
0
 10
-46.676
 20
74.1553
 11
-49.0204
 21
68.2943
  0
LINE
  8
0
 10
-49.0204
 20
68.2943
 11
-49.476
 21
67.1553
  0
LINE
  8
0
 10
-49.476
 20
67.1553
 11
-50.4893
 21
64.7576
  0
LINE
  8
0
 10
-50.4893
 20
64.7576
 11
-54.601
 21
55.0284
  0
LINE
  8
0
 10
-54.601
 20
55.0284
 11
-55.743
 21
51.5071
  0
LINE
  8
0
 10
-55.743
 20
51.5071
 11
-56.0244
 21
50.6393
  0
LINE
  8
0
 10
-56.0244
 20
50.6393
 11
-56.9336
 21
46.9131
  0
LINE
  8
0
 10
-56.9336
 20
46.9131
 11
-59.6483
 21
35.787
  0
LINE
  8
0
 10
-59.6483
 20
35.787
 11
-59.884
 21
34.4404
  0
LINE
  8
0
 10
-59.884
 20
34.4404
 11
-60.5431
 21
30.6757
  0
LINE
  8
0
 10
-60.5431
 20
30.6757
 11
-61.9248
 21
18.4741
  0
LINE
  8
0
 10
-61.9248
 20
18.4741
 11
-62.419
 21
14.1101
  0
LINE
  8
0
 10
-62.419
 20
14.1101
 11
-62.5105
 21
12.4643
  0
LINE
  8
0
 10
-62.5105
 20
12.4643
 11
-62.7242
 21
8.625
  0
LINE
  8
0
 10
-62.7242
 20
8.625
 11
-62.7242
 21
-8.625
  0
LINE
  8
0
 10
-62.7242
 20
-8.625
 11
-62.5105
 21
-12.4643
  0
LINE
  8
0
 10
-62.5105
 20
-12.4643
 11
-62.419
 21
-14.1101
  0
LINE
  8
0
 10
-62.419
 20
-14.1101
 11
-61.9248
 21
-18.4741
  0
LINE
  8
0
 10
-61.9248
 20
-18.4741
 11
-60.5431
 21
-30.6757
  0
LINE
  8
0
 10
-60.5431
 20
-30.6757
 11
-60.3836
 21
-34.0831
  0
LINE
  8
0
 10
-60.3836
 20
-34.0831
 11
-60.0665
 21
-40.8585
  0
LINE
  8
0
 10
-60.0665
 20
-40.8585
 11
-65.0654
 21
-44.3588
  0
LINE
  8
0
 10
-65.0654
 20
-44.3588
 11
-65.0657
 21
-44.359
  0
LINE
  8
0
 10
-65.0657
 20
-44.359
 11
-69.3559
 21
-47.363
  0
LINE
  8
0
 10
-69.3559
 20
-47.363
 11
-69.3792
 21
-47.3793
  0
LINE
  8
0
 10
-69.3792
 20
-47.3793
 11
-69.4148
 21
-47.4043
  0
LINE
  8
0
 10
-69.4148
 20
-47.4043
 11
-70.1367
 21
-48.1575
  0
LINE
  8
0
 10
-70.1367
 20
-48.1575
 11
-71.0877
 21
-49.1499
  0
LINE
  8
0
 10
-71.0877
 20
-49.1499
 11
-71.0877
 21
-49.1499
  0
LINE
  8
0
 10
-71.0877
 20
-49.1499
 11
-71.3801
 21
-53.8546
  0
LINE
  8
0
 10
-71.3801
 20
-53.8546
 11
-71.6398
 21
-58.0351
  0
LINE
  8
0
 10
-68.4465
 20
-55.3463
 11
-68.2953
 21
-52.9121
  0
LINE
  8
0
 10
-68.2953
 20
-52.9121
 11
-68.0895
 21
-49.6001
  0
LINE
  8
0
 10
-68.0895
 20
-49.6001
 11
-65.8757
 21
-48.05
  0
LINE
  8
0
 10
-65.8757
 20
-48.05
 11
-65.8754
 21
-48.0498
  0
LINE
  8
0
 10
-65.8754
 20
-48.0498
 11
-60.2863
 21
-44.1362
  0
LINE
  8
0
 10
-60.2863
 20
-44.1362
 11
-60.1201
 21
-44.6474
  0
LINE
  8
0
 10
-60.1201
 20
-44.6474
 11
-59.7441
 21
-45.2988
  0
LINE
  8
0
 10
-59.7441
 20
-45.2988
 11
-59.7387
 21
-45.3081
  0
LINE
  8
0
 10
-59.7387
 20
-45.3081
 11
-59.7315
 21
-45.3161
  0
LINE
  8
0
 10
-59.7315
 20
-45.3161
 11
-59.2282
 21
-45.8751
  0
LINE
  8
0
 10
-59.2282
 20
-45.8751
 11
-58.6197
 21
-46.3172
  0
LINE
  8
0
 10
-58.6197
 20
-46.3172
 11
-58.611
 21
-46.3235
  0
LINE
  8
0
 10
-58.611
 20
-46.3235
 11
-58.6012
 21
-46.3279
  0
LINE
  8
0
 10
-58.6012
 20
-46.3279
 11
-57.9141
 21
-46.6338
  0
LINE
  8
0
 10
-57.9141
 20
-46.6338
 11
-57.1783
 21
-46.7902
  0
LINE
  8
0
 10
-57.1783
 20
-46.7902
 11
-57.1678
 21
-46.7924
  0
LINE
  8
0
 10
-57.1678
 20
-46.7924
 11
-56.4049
 21
-46.7924
  0
LINE
  8
0
 10
-56.4049
 20
-46.7924
 11
-56.3944
 21
-46.7902
  0
LINE
  8
0
 10
-56.3944
 20
-46.7902
 11
-55.6587
 21
-46.6338
  0
LINE
  8
0
 10
-55.6587
 20
-46.6338
 11
-54.9715
 21
-46.3279
  0
LINE
  8
0
 10
-54.9715
 20
-46.3279
 11
-54.9617
 21
-46.3235
  0
LINE
  8
0
 10
-54.9617
 20
-46.3235
 11
-54.953
 21
-46.3172
  0
LINE
  8
0
 10
-54.953
 20
-46.3172
 11
-54.3445
 21
-45.8751
  0
LINE
  8
0
 10
-54.3445
 20
-45.8751
 11
-53.8412
 21
-45.3161
  0
LINE
  8
0
 10
-53.8412
 20
-45.3161
 11
-53.834
 21
-45.3081
  0
LINE
  8
0
 10
-53.834
 20
-45.3081
 11
-53.8287
 21
-45.2988
  0
LINE
  8
0
 10
-53.8287
 20
-45.2988
 11
-53.4526
 21
-44.6474
  0
LINE
  8
0
 10
-53.4526
 20
-44.6474
 11
-53.2201
 21
-43.9321
  0
LINE
  8
0
 10
-53.2201
 20
-43.9321
 11
-53.2168
 21
-43.9219
  0
LINE
  8
0
 10
-53.2168
 20
-43.9219
 11
-53.1382
 21
-43.1738
  0
LINE
  8
0
 10
-53.1382
 20
-43.1738
 11
-53.1371
 21
-43.1631
  0
LINE
  8
0
 10
-53.1371
 20
-43.1631
 11
-53.1382
 21
-43.1524
  0
LINE
  8
0
 10
-53.1382
 20
-43.1524
 11
-53.2168
 21
-42.4044
  0
LINE
  8
0
 10
-53.2168
 20
-42.4044
 11
-53.2201
 21
-42.3942
  0
LINE
  8
0
 10
-53.2201
 20
-42.3942
 11
-53.4526
 21
-41.6788
  0
LINE
  8
0
 10
-53.4526
 20
-41.6788
 11
-53.8287
 21
-41.0275
  0
LINE
  8
0
 10
-53.8287
 20
-41.0275
 11
-53.834
 21
-41.0181
  0
LINE
  8
0
 10
-53.834
 20
-41.0181
 11
-53.8412
 21
-41.0102
  0
LINE
  8
0
 10
-53.8412
 20
-41.0102
 11
-54.3445
 21
-40.4512
  0
LINE
  8
0
 10
-54.3445
 20
-40.4512
 11
-54.3532
 21
-40.4449
  0
LINE
  8
0
 10
-54.3532
 20
-40.4449
 11
-54.9617
 21
-40.0028
  0
LINE
  8
0
 10
-54.9617
 20
-40.0028
 11
-55.6488
 21
-39.6968
  0
LINE
  8
0
 10
-55.6488
 20
-39.6968
 11
-55.6587
 21
-39.6925
  0
LINE
  8
0
 10
-55.6587
 20
-39.6925
 11
-55.6692
 21
-39.6902
  0
LINE
  8
0
 10
-55.6692
 20
-39.6902
 11
-56.0434
 21
-39.6107
  0
LINE
  8
0
 10
-56.0434
 20
-39.6107
 11
-56.3706
 21
-39.1947
  0
LINE
  8
0
 10
-56.3706
 20
-39.1947
 11
-56.7991
 21
-38.65
  0
LINE
  8
0
 10
-56.7991
 20
-38.65
 11
-56.8393
 21
-38.5988
  0
LINE
  8
0
 10
-56.8393
 20
-38.5988
 11
-56.8393
 21
-38.5988
  0
LINE
  8
0
 10
-56.8393
 20
-38.5988
 11
-56.8848
 21
-38.6307
  0
LINE
  8
0
 10
-56.8848
 20
-38.6307
 11
-56.9925
 21
-38.7061
  0
LINE
  8
0
 10
-56.9925
 20
-38.7061
 11
-57.0255
 21
-38.5215
  0
LINE
  8
0
 10
-57.0255
 20
-38.5215
 11
-58.4431
 21
-30.5757
  0
LINE
  8
0
 10
-58.4431
 20
-30.5757
 11
-59.8767
 21
-17.9154
  0
LINE
  8
0
 10
-59.8767
 20
-17.9154
 11
-60.319
 21
-14.0101
  0
LINE
  8
0
 10
-60.319
 20
-14.0101
 11
-60.3997
 21
-12.5585
  0
LINE
  8
0
 10
-60.3997
 20
-12.5585
 11
-60.6242
 21
-8.525
  0
LINE
  8
0
 10
-60.6242
 20
-8.525
 11
-60.6242
 21
8.525
  0
LINE
  8
0
 10
-60.6242
 20
8.525
 11
-60.3997
 21
12.5585
  0
LINE
  8
0
 10
-60.3997
 20
12.5585
 11
-60.319
 21
14.0101
  0
LINE
  8
0
 10
-60.319
 20
14.0101
 11
-59.8767
 21
17.9154
  0
LINE
  8
0
 10
-59.8767
 20
17.9154
 11
-58.4431
 21
30.5757
  0
LINE
  8
0
 10
-58.4431
 20
30.5757
 11
-57.7593
 21
34.482
  0
LINE
  8
0
 10
-57.7593
 20
34.482
 11
-57.5483
 21
35.687
  0
LINE
  8
0
 10
-57.5483
 20
35.687
 11
-56.8516
 21
38.5424
  0
LINE
  8
0
 10
-56.8516
 20
38.5424
 11
-53.9244
 21
50.5393
  0
LINE
  8
0
 10
-53.9244
 20
50.5393
 11
-53.6658
 21
51.3368
  0
LINE
  8
0
 10
-53.6658
 20
51.3368
 11
-52.501
 21
54.9285
  0
LINE
  8
0
 10
-52.501
 20
54.9285
 11
-48.3072
 21
64.8519
  0
LINE
  8
0
 10
-48.3072
 20
64.8519
 11
-47.376
 21
67.0553
  0
LINE
  8
0
 10
-47.376
 20
67.0553
 11
-46.7321
 21
68.6651
  0
LINE
  8
0
 10
-46.7321
 20
68.6651
 11
-46.4376
 21
68.3379
  0
LINE
  8
0
 10
-46.4376
 20
68.3379
 11
-46.4304
 21
68.3299
  0
LINE
  8
0
 10
-46.4304
 20
68.3299
 11
-46.4217
 21
68.3236
  0
LINE
  8
0
 10
-46.4217
 20
68.3236
 11
-45.8132
 21
67.8815
  0
LINE
  8
0
 10
-45.8132
 20
67.8815
 11
-45.126
 21
67.5756
  0
LINE
  8
0
 10
-45.126
 20
67.5756
 11
-45.1162
 21
67.5712
  0
LINE
  8
0
 10
-45.1162
 20
67.5712
 11
-45.1057
 21
67.569
  0
LINE
  8
0
 10
-45.1057
 20
67.569
 11
-44.37
 21
67.4126
  0
LINE
  8
0
 10
-44.37
 20
67.4126
 11
-43.6071
 21
67.4126
  0
LINE
  8
0
 10
-43.6071
 20
67.4126
 11
-43.5966
 21
67.4148
  0
LINE
  8
0
 10
-43.5966
 20
67.4148
 11
-42.8608
 21
67.5712
  0
LINE
  8
0
 10
-42.8608
 20
67.5712
 11
-42.1737
 21
67.8771
  0
LINE
  8
0
 10
-42.1737
 20
67.8771
 11
-42.1639
 21
67.8815
  0
LINE
  8
0
 10
-42.1639
 20
67.8815
 11
-41.5554
 21
68.3236
  0
LINE
  8
0
 10
-41.5554
 20
68.3236
 11
-41.5467
 21
68.3299
  0
LINE
  8
0
 10
-41.5467
 20
68.3299
 11
-41.5395
 21
68.3379
  0
LINE
  8
0
 10
-41.5395
 20
68.3379
 11
-41.0362
 21
68.8969
  0
LINE
  8
0
 10
-41.0362
 20
68.8969
 11
-41.0308
 21
68.9062
  0
LINE
  8
0
 10
-41.0308
 20
68.9062
 11
-40.6547
 21
69.5576
  0
LINE
  8
0
 10
-40.6547
 20
69.5576
 11
-40.4223
 21
70.2729
  0
LINE
  8
0
 10
-40.4223
 20
70.2729
 11
-40.419
 21
70.2832
  0
LINE
  8
0
 10
-40.419
 20
70.2832
 11
-40.4179
 21
70.2939
  0
LINE
  8
0
 10
-40.4179
 20
70.2939
 11
-40.3392
 21
71.0419
  0
LINE
  8
0
 10
-40.3392
 20
71.0419
 11
-40.4179
 21
71.7899
  0
LINE
  8
0
 10
-40.4179
 20
71.7899
 11
-40.419
 21
71.8006
  0
LINE
  8
0
 10
-40.419
 20
71.8006
 11
-40.6514
 21
72.516
  0
LINE
  8
0
 10
-40.6514
 20
72.516
 11
-40.6547
 21
72.5262
  0
LINE
  8
0
 10
-40.6547
 20
72.5262
 11
-40.839
 21
72.8454
  0
LINE
  8
0
 10
-40.839
 20
72.8454
 11
-38.4199
 21
73.2667
  0
LINE
  8
0
 10
-38.4199
 20
73.2667
 11
-37.1759
 21
73.4833
  0
LINE
  8
0
 10
-37.1759
 20
73.4833
 11
-23.0886
 21
73.4833
  0
LINE
  8
0
 10
-23.0886
 20
73.4833
 11
-20.8738
 21
73.4833
  0
LINE
  8
0
 10
-20.8738
 20
73.4833
 11
-19.2747
 21
73.4833
  0
LINE
  8
0
 10
-19.2747
 20
73.4833
 11
-18.9903
 21
73.4833
  0
LINE
  8
0
 10
-18.9903
 20
73.4833
 11
-4.65721
 21
73.4833
  0
LINE
  8
0
 10
-4.65721
 20
73.4833
 11
-2.05907
 21
73.4833
  0
LINE
  8
0
 10
-2.05907
 20
73.4833
 11
-2.03896
 21
73.5421
  0
LINE
  8
0
 10
-2.03896
 20
73.5421
 11
-1.95523
 21
73.7869
  0
LINE
  8
0
 10
-1.95523
 20
73.7869
 11
-1.55119
 21
74.9683
  0
LINE
  8
0
 10
-1.55119
 20
74.9683
 11
-1.46878
 21
76.5443
  0
LINE
  8
0
 10
-1.46878
 20
76.5443
 11
-1.16762
 21
82.3033
  0
LINE
  8
0
 10
-1.16762
 20
82.3033
 11
4.76991
 21
82.3033
  0
LINE
  8
0
 10
4.76991
 20
82.3033
 11
4.75153
 21
82.1284
  0
LINE
  8
0
 10
4.75153
 20
82.1284
 11
4.7504
 21
82.1177
  0
LINE
  8
0
 10
4.7504
 20
82.1177
 11
4.75153
 21
82.107
  0
LINE
  8
0
 10
4.75153
 20
82.107
 11
4.83015
 21
81.359
  0
LINE
  8
0
 10
4.83015
 20
81.359
 11
5.06258
 21
80.6437
  0
LINE
  8
0
 10
5.06258
 20
80.6437
 11
5.0659
 21
80.6334
  0
LINE
  8
0
 10
5.0659
 20
80.6334
 11
5.07128
 21
80.6241
  0
LINE
  8
0
 10
5.07128
 20
80.6241
 11
5.44736
 21
79.9727
  0
LINE
  8
0
 10
5.44736
 20
79.9727
 11
5.95065
 21
79.4138
  0
LINE
  8
0
 10
5.95065
 20
79.4138
 11
5.95784
 21
79.4058
  0
LINE
  8
0
 10
5.95784
 20
79.4058
 11
5.96654
 21
79.3995
  0
LINE
  8
0
 10
5.96654
 20
79.3995
 11
6.57505
 21
78.9573
  0
LINE
  8
0
 10
6.57505
 20
78.9573
 11
7.26218
 21
78.6514
  0
LINE
  8
0
 10
7.26218
 20
78.6514
 11
7.272
 21
78.647
  0
LINE
  8
0
 10
7.272
 20
78.647
 11
7.28251
 21
78.6448
  0
LINE
  8
0
 10
7.28251
 20
78.6448
 11
8.01823
 21
78.4884
  0
LINE
  8
0
 10
8.01823
 20
78.4884
 11
8.78114
 21
78.4884
  0
LINE
  8
0
 10
8.78114
 20
78.4884
 11
9.51686
 21
78.6448
  0
LINE
  8
0
 10
9.51686
 20
78.6448
 11
9.52738
 21
78.647
  0
LINE
  8
0
 10
9.52738
 20
78.647
 11
9.5372
 21
78.6514
  0
LINE
  8
0
 10
9.5372
 20
78.6514
 11
10.2243
 21
78.9573
  0
LINE
  8
0
 10
10.2243
 20
78.9573
 11
10.8328
 21
79.3995
  0
LINE
  8
0
 10
10.8328
 20
79.3995
 11
10.8415
 21
79.4058
  0
LINE
  8
0
 10
10.8415
 20
79.4058
 11
11.3448
 21
79.9647
  0
LINE
  8
0
 10
11.3448
 20
79.9647
 11
11.352
 21
79.9727
  0
LINE
  8
0
 10
11.352
 20
79.9727
 11
11.3574
 21
79.982
  0
LINE
  8
0
 10
11.3574
 20
79.982
 11
11.7335
 21
80.6334
  0
LINE
  8
0
 10
11.7335
 20
80.6334
 11
11.9659
 21
81.3488
  0
LINE
  8
0
 10
11.9659
 20
81.3488
 11
11.9692
 21
81.359
  0
LINE
  8
0
 10
11.9692
 20
81.359
 11
12.0479
 21
82.107
  0
LINE
  8
0
 10
12.0479
 20
82.107
 11
12.049
 21
82.1177
  0
LINE
  8
0
 10
12.049
 20
82.1177
 11
12.0479
 21
82.1284
  0
LINE
  8
0
 10
12.0479
 20
82.1284
 11
12.0295
 21
82.3033
  0
LINE
  8
0
 10
12.0295
 20
82.3033
 11
12.7104
 21
82.3033
  0
LINE
  8
0
 10
12.7104
 20
82.3033
 11
12.7266
 21
82.3033
  0
LINE
  8
0
 10
12.7266
 20
82.3033
 11
15.8183
 21
82.3033
  0
LINE
  8
0
 10
15.8183
 20
82.3033
 11
18.162
 21
75.249
  0
LINE
  8
0
 10
18.162
 20
75.249
 11
18.7487
 21
73.4833
  0
LINE
  8
0
 10
18.7487
 20
73.4833
 11
33.2639
 21
73.4833
  0
LINE
  8
0
 10
33.2639
 20
73.4833
 11
36.4777
 21
73.4833
  0
LINE
  8
0
 10
36.4777
 20
73.4833
 11
37.0875
 21
71.3294
  0
LINE
  8
0
 10
37.0875
 20
71.3294
 11
39.8747
 21
61.4833
  0
LINE
  8
0
 10
39.8747
 20
61.4833
 11
54.6715
 21
61.4833
  0
LINE
  8
0
 10
54.6715
 20
61.4833
 11
57.89
 21
61.4833
  0
LINE
  8
0
 10
57.89
 20
61.4833
 11
60.1409
 21
61.4833
  0
LINE
  8
0
 10
60.1409
 20
61.4833
 11
60.1592
 21
61.4833
  0
LINE
  8
0
 10
60.1592
 20
61.4833
 11
60.669
 21
61.4833
  0
LINE
  8
0
 10
60.669
 20
61.4833
 11
78.5715
 21
61.4833
  0
LINE
  8
0
 10
78.5715
 20
61.4833
 11
79.6273
 21
61.4543
  0
LINE
  8
0
 10
79.6273
 20
61.4543
 11
81.0247
 21
61.4159
  0
LINE
  8
0
 10
81.0247
 20
61.4159
 11
80.8791
 21
60.9677
  0
LINE
  8
0
 10
80.8791
 20
60.9677
 11
80.8757
 21
60.9575
  0
LINE
  8
0
 10
80.8757
 20
60.9575
 11
80.7971
 21
60.2094
  0
LINE
  8
0
 10
80.7971
 20
60.2094
 11
80.796
 21
60.1987
  0
LINE
  8
0
 10
80.796
 20
60.1987
 11
80.7971
 21
60.1881
  0
LINE
  8
0
 10
80.7971
 20
60.1881
 11
80.8757
 21
59.44
  0
LINE
  8
0
 10
80.8757
 20
59.44
 11
80.8791
 21
59.4298
  0
LINE
  8
0
 10
80.8791
 20
59.4298
 11
81.1115
 21
58.7145
  0
LINE
  8
0
 10
81.1115
 20
58.7145
 11
81.4876
 21
58.0631
  0
LINE
  8
0
 10
81.4876
 20
58.0631
 11
81.4929
 21
58.0538
  0
LINE
  8
0
 10
81.4929
 20
58.0538
 11
81.5001
 21
58.0458
  0
LINE
  8
0
 10
81.5001
 20
58.0458
 11
82.0034
 21
57.4868
  0
LINE
  8
0
 10
82.0034
 20
57.4868
 11
82.6119
 21
57.0447
  0
LINE
  8
0
 10
82.6119
 20
57.0447
 11
82.6206
 21
57.0384
  0
LINE
  8
0
 10
82.6206
 20
57.0384
 11
82.6305
 21
57.034
  0
LINE
  8
0
 10
82.6305
 20
57.034
 11
83.3176
 21
56.7281
  0
LINE
  8
0
 10
83.3176
 20
56.7281
 11
84.0533
 21
56.5717
  0
LINE
  8
0
 10
84.0533
 20
56.5717
 11
84.0638
 21
56.5695
  0
LINE
  8
0
 10
84.0638
 20
56.5695
 11
84.8267
 21
56.5695
  0
LINE
  8
0
 10
84.8267
 20
56.5695
 11
84.8372
 21
56.5717
  0
LINE
  8
0
 10
84.8372
 20
56.5717
 11
85.573
 21
56.7281
  0
LINE
  8
0
 10
85.573
 20
56.7281
 11
86.2601
 21
57.034
  0
LINE
  8
0
 10
86.2601
 20
57.034
 11
86.2699
 21
57.0384
  0
LINE
  8
0
 10
86.2699
 20
57.0384
 11
86.2786
 21
57.0447
  0
LINE
  8
0
 10
86.2786
 20
57.0447
 11
86.8871
 21
57.4868
  0
LINE
  8
0
 10
86.8871
 20
57.4868
 11
87.3904
 21
58.0458
  0
LINE
  8
0
 10
87.3904
 20
58.0458
 11
87.3976
 21
58.0538
  0
LINE
  8
0
 10
87.3976
 20
58.0538
 11
87.403
 21
58.0631
  0
LINE
  8
0
 10
87.403
 20
58.0631
 11
87.7791
 21
58.7145
  0
LINE
  8
0
 10
87.7791
 20
58.7145
 11
87.8062
 21
58.7981
  0
LINE
  8
0
 10
87.8062
 20
58.7981
 11
88.2955
 21
58.4522
  0
LINE
  8
0
 10
88.2955
 20
58.4522
 11
89.2286
 21
57.7923
  0
LINE
  8
0
 10
89.2286
 20
57.7923
 11
89.2286
 21
48.1542
  0
LINE
  8
0
 10
89.2286
 20
48.1542
 11
89.2286
 21
48.1435
  0
LINE
  8
0
 10
89.2286
 20
48.1435
 11
89.2286
 21
45.7547
  0
LINE
  8
0
 10
89.2286
 20
45.7547
 11
89.2286
 21
41.8538
  0
LINE
  8
0
 10
89.2286
 20
41.8538
 11
89.2286
 21
40.4718
  0
LINE
  8
0
 10
89.2286
 20
40.4718
 11
89.2286
 21
30.0304
  0
LINE
  8
0
 10
89.2286
 20
30.0304
 11
89.2286
 21
30.0114
  0
LINE
  8
0
 10
89.2286
 20
30.0114
 11
89.2286
 21
25.7206
  0
LINE
  8
0
 10
89.2286
 20
25.7206
 11
89.2286
 21
21.9596
  0
LINE
  8
0
 10
89.2286
 20
21.9596
 11
89.2286
 21
19.5654
  0
LINE
  8
0
 10
89.2286
 20
19.5654
 11
89.2286
 21
10.2032
  0
LINE
  8
0
 10
89.2286
 20
10.2032
 11
89.2286
 21
3.1207
  0
LINE
  8
0
 10
89.2286
 20
3.1207
 11
89.2286
 21
0.024247
  0
LINE
  8
0
 10
89.2286
 20
0.024247
 11
89.2286
 21
-3.525
  0
LINE
  8
0
 10
89.2286
 20
-3.525
 11
89.2286
 21
-20.475
  0
LINE
  8
0
 10
89.2286
 20
-20.475
 11
85.7205
 21
-30.4851
  0
LINE
  8
0
 10
85.7205
 20
-30.4851
 11
81.6816
 21
-42.0101
  0
LINE
  8
0
 10
81.6816
 20
-42.0101
 11
81.403
 21
-41.5275
  0
LINE
  8
0
 10
81.403
 20
-41.5275
 11
81.3976
 21
-41.5181
  0
LINE
  8
0
 10
81.3976
 20
-41.5181
 11
81.3904
 21
-41.5102
  0
LINE
  8
0
 10
81.3904
 20
-41.5102
 11
80.8871
 21
-40.9512
  0
LINE
  8
0
 10
80.8871
 20
-40.9512
 11
80.8784
 21
-40.9449
  0
LINE
  8
0
 10
80.8784
 20
-40.9449
 11
80.2699
 21
-40.5028
  0
LINE
  8
0
 10
80.2699
 20
-40.5028
 11
79.5828
 21
-40.1968
  0
LINE
  8
0
 10
79.5828
 20
-40.1968
 11
79.573
 21
-40.1925
  0
LINE
  8
0
 10
79.573
 20
-40.1925
 11
79.5624
 21
-40.1902
  0
LINE
  8
0
 10
79.5624
 20
-40.1902
 11
78.8267
 21
-40.0338
  0
LINE
  8
0
 10
78.8267
 20
-40.0338
 11
78.0638
 21
-40.0338
  0
LINE
  8
0
 10
78.0638
 20
-40.0338
 11
77.3281
 21
-40.1902
  0
LINE
  8
0
 10
77.3281
 20
-40.1902
 11
77.3176
 21
-40.1925
  0
LINE
  8
0
 10
77.3176
 20
-40.1925
 11
77.3078
 21
-40.1968
  0
LINE
  8
0
 10
77.3078
 20
-40.1968
 11
76.6206
 21
-40.5028
  0
LINE
  8
0
 10
76.6206
 20
-40.5028
 11
76.0121
 21
-40.9449
  0
LINE
  8
0
 10
76.0121
 20
-40.9449
 11
76.0034
 21
-40.9512
  0
LINE
  8
0
 10
76.0034
 20
-40.9512
 11
75.5001
 21
-41.5102
  0
LINE
  8
0
 10
75.5001
 20
-41.5102
 11
75.4929
 21
-41.5181
  0
LINE
  8
0
 10
75.4929
 20
-41.5181
 11
75.4876
 21
-41.5275
  0
LINE
  8
0
 10
75.4876
 20
-41.5275
 11
75.1115
 21
-42.1788
  0
LINE
  8
0
 10
75.1115
 20
-42.1788
 11
74.8791
 21
-42.8942
  0
LINE
  8
0
 10
74.8791
 20
-42.8942
 11
74.8757
 21
-42.9044
  0
LINE
  8
0
 10
74.8757
 20
-42.9044
 11
74.7971
 21
-43.6524
  0
LINE
  8
0
 10
74.7971
 20
-43.6524
 11
74.796
 21
-43.6631
  0
LINE
  8
0
 10
74.796
 20
-43.6631
 11
74.7971
 21
-43.6738
  0
LINE
  8
0
 10
74.7971
 20
-43.6738
 11
74.8757
 21
-44.4219
  0
LINE
  8
0
 10
74.8757
 20
-44.4219
 11
74.8791
 21
-44.4321
  0
LINE
  8
0
 10
74.8791
 20
-44.4321
 11
75.1115
 21
-45.1474
  0
LINE
  8
0
 10
75.1115
 20
-45.1474
 11
75.4876
 21
-45.7988
  0
LINE
  8
0
 10
75.4876
 20
-45.7988
 11
75.4929
 21
-45.8081
  0
LINE
  8
0
 10
75.4929
 20
-45.8081
 11
75.5001
 21
-45.8161
  0
LINE
  8
0
 10
75.5001
 20
-45.8161
 11
76.0034
 21
-46.3751
  0
LINE
  8
0
 10
76.0034
 20
-46.3751
 11
76.6119
 21
-46.8172
  0
LINE
  8
0
 10
76.6119
 20
-46.8172
 11
76.6206
 21
-46.8235
  0
LINE
  8
0
 10
76.6206
 20
-46.8235
 11
76.6305
 21
-46.8279
  0
LINE
  8
0
 10
76.6305
 20
-46.8279
 11
77.3176
 21
-47.1338
  0
LINE
  8
0
 10
77.3176
 20
-47.1338
 11
77.5239
 21
-47.1777
  0
LINE
  8
0
 10
77.5239
 20
-47.1777
 11
76.0716
 21
-48.5805
  0
LINE
  8
0
 10
76.0716
 20
-48.5805
 11
58.169
 21
-48.5805
  0
LINE
  8
0
 10
58.169
 20
-48.5805
 11
57.0393
 21
-48.5805
  0
LINE
  8
0
 10
57.0393
 20
-48.5805
 11
56.9999
 21
-48.5805
  0
LINE
  8
0
 10
56.9999
 20
-48.5805
 11
55.2983
 21
-48.5805
  0
LINE
  8
0
 10
55.2983
 20
-48.5805
 11
48.5637
 21
-48.5805
  0
LINE
  8
0
 10
48.5637
 20
-48.5805
 11
37.3044
 21
-48.5805
  0
LINE
  8
0
 10
37.3044
 20
-48.5805
 11
36.1833
 21
-51.0506
  0
LINE
  8
0
 10
36.1833
 20
-51.0506
 11
33.4953
 21
-56.9732
  0
LINE
  8
0
 10
33.4953
 20
-56.9732
 11
28.7851
 21
-56.9732
  0
LINE
  8
0
 10
28.7851
 20
-56.9732
 11
15.8647
 21
-56.9732
  0
LINE
  8
0
 10
15.8647
 20
-56.9732
 11
9.6836
 21
-55.7817
  0
LINE
  8
0
 10
9.6836
 20
-55.7817
 11
-7.30251
 21
-52.5075
  0
LINE
  8
0
 10
-7.30251
 20
-52.5075
 11
-7.30251
 21
-52.5075
  0
LINE
  8
0
 10
-7.30251
 20
-52.5075
 11
-7.37225
 21
-52.5198
  0
LINE
  8
0
 10
-7.37225
 20
-52.5198
 11
-7.37225
 21
-52.5198
  0
LINE
  8
0
 10
-7.37225
 20
-52.5198
 11
-7.39763
 21
-52.5242
  0
LINE
  8
0
 10
-7.39763
 20
-52.5242
 11
-7.39763
 21
-52.5242
  0
LINE
  8
0
 10
-7.39763
 20
-52.5242
 11
-8.07484
 21
-53.4539
  0
LINE
  8
0
 10
-8.07484
 20
-53.4539
 11
-8.07485
 21
-53.454
  0
LINE
  8
0
 10
-8.07485
 20
-53.454
 11
-8.32152
 21
-53.7926
  0
LINE
  8
0
 10
-8.32152
 20
-53.7926
 11
-9.87083
 21
-60.1293
  0
LINE
  8
0
 10
-9.87083
 20
-60.1293
 11
-9.87094
 21
-60.1297
  0
LINE
  8
0
 10
-9.87094
 20
-60.1297
 11
-12.3765
 21
-70.3774
  0
LINE
  8
0
 10
-12.3765
 20
-70.3774
 11
-12.4333
 21
-70.2789
  0
LINE
  8
0
 10
-12.4333
 20
-70.2789
 11
-12.4387
 21
-70.2696
  0
LINE
  8
0
 10
-12.4387
 20
-70.2696
 11
-12.942
 21
-69.7107
  0
LINE
  8
0
 10
-12.942
 20
-69.7107
 11
-12.9492
 21
-69.7027
  0
LINE
  8
0
 10
-12.9492
 20
-69.7027
 11
-12.9579
 21
-69.6964
  0
LINE
  8
0
 10
-12.9579
 20
-69.6964
 11
-13.5664
 21
-69.2542
  0
LINE
  8
0
 10
-13.5664
 20
-69.2542
 11
-13.5762
 21
-69.2499
  0
LINE
  8
0
 10
-13.5762
 20
-69.2499
 11
-14.2633
 21
-68.9439
  0
LINE
  8
0
 10
-14.2633
 20
-68.9439
 11
-14.999
 21
-68.7876
  0
LINE
  8
0
 10
-14.999
 20
-68.7876
 11
-15.0096
 21
-68.7853
  0
LINE
  8
0
 10
-15.0096
 20
-68.7853
 11
-15.7725
 21
-68.7853
  0
LINE
  8
0
 10
-15.7725
 20
-68.7853
 11
-16.5082
 21
-68.9417
  0
LINE
  8
0
 10
-16.5082
 20
-68.9417
 11
-16.5187
 21
-68.9439
  0
LINE
  8
0
 10
-16.5187
 20
-68.9439
 11
-16.5285
 21
-68.9483
  0
LINE
  8
0
 10
-16.5285
 20
-68.9483
 11
-17.2156
 21
-69.2542
  0
LINE
  8
0
 10
-17.2156
 20
-69.2542
 11
-17.8242
 21
-69.6964
  0
LINE
  8
0
 10
-17.8242
 20
-69.6964
 11
-17.8329
 21
-69.7027
  0
LINE
  8
0
 10
-17.8329
 20
-69.7027
 11
-18.3361
 21
-70.2616
  0
LINE
  8
0
 10
-18.3361
 20
-70.2616
 11
-18.3433
 21
-70.2696
  0
LINE
  8
0
 10
-18.3433
 20
-70.2696
 11
-18.3487
 21
-70.2789
  0
LINE
  8
0
 10
-18.3487
 20
-70.2789
 11
-18.7248
 21
-70.9303
  0
LINE
  8
0
 10
-18.7248
 20
-70.9303
 11
-18.9572
 21
-71.6457
  0
LINE
  8
0
 10
-18.9572
 20
-71.6457
 11
-18.9605
 21
-71.6559
  0
LINE
  8
0
 10
-18.9605
 20
-71.6559
 11
-18.9617
 21
-71.6666
  0
LINE
  8
0
 10
-18.9617
 20
-71.6666
 11
-19.0403
 21
-72.4146
  0
LINE
  8
0
 10
-19.0403
 20
-72.4146
 11
-18.9617
 21
-73.1627
  0
LINE
  8
0
 10
-18.9617
 20
-73.1627
 11
-18.9605
 21
-73.1734
  0
LINE
  8
0
 10
-18.9605
 20
-73.1734
 11
-18.9572
 21
-73.1836
  0
LINE
  8
0
 10
-18.9572
 20
-73.1836
 11
-18.7248
 21
-73.8989
  0
LINE
  8
0
 10
-18.7248
 20
-73.8989
 11
-18.3487
 21
-74.5503
  0
LINE
  8
0
 10
-18.3487
 20
-74.5503
 11
-18.3433
 21
-74.5596
  0
LINE
  8
0
 10
-18.3433
 20
-74.5596
 11
-18.3361
 21
-74.5676
  0
LINE
  8
0
 10
-18.3361
 20
-74.5676
 11
-17.8329
 21
-75.1266
  0
LINE
  8
0
 10
-17.8329
 20
-75.1266
 11
-17.8242
 21
-75.1329
  0
LINE
  8
0
 10
-17.8242
 20
-75.1329
 11
-17.2156
 21
-75.575
  0
LINE
  8
0
 10
-17.2156
 20
-75.575
 11
-17.1613
 21
-75.5992
  0
LINE
  8
0
 10
-17.1613
 20
-75.5992
 11
-21.9632
 21
-77.8383
  0
LINE
  8
0
 10
-21.9632
 20
-77.8383
 11
-26.3698
 21
-79.8932
  0
LINE
  8
0
 10
-26.3698
 20
-79.8932
 11
-26.5856
 21
-79.6205
  0
LINE
  8
0
 10
-26.5856
 20
-79.6205
 11
-26.5856
 21
-79.6205
  0
LINE
  8
0
 10
-26.5856
 20
-79.6205
 11
-26.6231
 21
-79.6468
  0
LINE
  8
0
 10
-26.6231
 20
-79.6468
 11
-26.6231
 21
-79.6468
  0
LINE
  8
0
 10
-26.6231
 20
-79.6468
 11
-36.5984
 21
-86.6316
  0
LINE
  8
0
 10
-36.5984
 20
-86.6316
 11
-38.8113
 21
-88.1811
  0
LINE
  8
0
 10
-38.8113
 20
-88.1811
 11
-45.2924
 21
-86.6544
  0
LINE
  8
0
 10
-45.2924
 20
-86.6544
 11
-45.2984
 21
-86.653
  0
LINE
  8
0
 10
-45.2984
 20
-86.653
 11
-45.3084
 21
-86.6404
  0
LINE
  8
0
 10
-45.3084
 20
-86.6404
 11
-56.0507
 21
-73.0692
  0
LINE
  8
0
 10
-56.0507
 20
-73.0692
 11
-57.1575
 21
-70.3249
  0
LINE
  8
0
 10
-57.1575
 20
-70.3249
 11
-57.6762
 21
-69.0389
  0
LINE
  8
0
 10
-57.6762
 20
-69.0389
 11
-64.3157
 21
-60.5979
  0
LINE
  8
0
 10
-64.3157
 20
-60.5979
 11
-68.4465
 21
-55.3463
  0
LINE
  8
0
 10
-58.4864
 20
-43.1631
 11
-58.4492
 21
-42.8097
  0
LINE
  8
0
 10
-58.4492
 20
-42.8097
 11
-58.3394
 21
-42.4717
  0
LINE
  8
0
 10
-58.3394
 20
-42.4717
 11
-58.1617
 21
-42.1639
  0
LINE
  8
0
 10
-58.1617
 20
-42.1639
 11
-57.9239
 21
-41.8998
  0
LINE
  8
0
 10
-57.9239
 20
-41.8998
 11
-57.6364
 21
-41.6909
  0
LINE
  8
0
 10
-57.6364
 20
-41.6909
 11
-57.3117
 21
-41.5463
  0
LINE
  8
0
 10
-57.3117
 20
-41.5463
 11
-56.9641
 21
-41.4725
  0
LINE
  8
0
 10
-56.9641
 20
-41.4725
 11
-56.6087
 21
-41.4725
  0
LINE
  8
0
 10
-56.6087
 20
-41.4725
 11
-56.261
 21
-41.5463
  0
LINE
  8
0
 10
-56.261
 20
-41.5463
 11
-55.9364
 21
-41.6909
  0
LINE
  8
0
 10
-55.9364
 20
-41.6909
 11
-55.6488
 21
-41.8998
  0
LINE
  8
0
 10
-55.6488
 20
-41.8998
 11
-55.411
 21
-42.1639
  0
LINE
  8
0
 10
-55.411
 20
-42.1639
 11
-55.2333
 21
-42.4717
  0
LINE
  8
0
 10
-55.2333
 20
-42.4717
 11
-55.1235
 21
-42.8097
  0
LINE
  8
0
 10
-55.1235
 20
-42.8097
 11
-55.0864
 21
-43.1631
  0
LINE
  8
0
 10
-55.0864
 20
-43.1631
 11
-55.1235
 21
-43.5166
  0
LINE
  8
0
 10
-55.1235
 20
-43.5166
 11
-55.2333
 21
-43.8546
  0
LINE
  8
0
 10
-55.2333
 20
-43.8546
 11
-55.411
 21
-44.1624
  0
LINE
  8
0
 10
-55.411
 20
-44.1624
 11
-55.6488
 21
-44.4265
  0
LINE
  8
0
 10
-55.6488
 20
-44.4265
 11
-55.9364
 21
-44.6354
  0
LINE
  8
0
 10
-55.9364
 20
-44.6354
 11
-56.261
 21
-44.7799
  0
LINE
  8
0
 10
-56.261
 20
-44.7799
 11
-56.6087
 21
-44.8538
  0
LINE
  8
0
 10
-56.6087
 20
-44.8538
 11
-56.9641
 21
-44.8538
  0
LINE
  8
0
 10
-56.9641
 20
-44.8538
 11
-57.3117
 21
-44.7799
  0
LINE
  8
0
 10
-57.3117
 20
-44.7799
 11
-57.6364
 21
-44.6354
  0
LINE
  8
0
 10
-57.6364
 20
-44.6354
 11
-57.9239
 21
-44.4265
  0
LINE
  8
0
 10
-57.9239
 20
-44.4265
 11
-58.1617
 21
-44.1624
  0
LINE
  8
0
 10
-58.1617
 20
-44.1624
 11
-58.3394
 21
-43.8546
  0
LINE
  8
0
 10
-58.3394
 20
-43.8546
 11
-58.4492
 21
-43.5166
  0
LINE
  8
0
 10
-58.4492
 20
-43.5166
 11
-58.4864
 21
-43.1631
  0
LINE
  8
0
 10
-45.6885
 20
71.0419
 11
-45.6514
 21
71.3953
  0
LINE
  8
0
 10
-45.6514
 20
71.3953
 11
-45.5416
 21
71.7333
  0
LINE
  8
0
 10
-45.5416
 20
71.7333
 11
-45.3639
 21
72.0411
  0
LINE
  8
0
 10
-45.3639
 20
72.0411
 11
-45.126
 21
72.3052
  0
LINE
  8
0
 10
-45.126
 20
72.3052
 11
-44.8385
 21
72.5141
  0
LINE
  8
0
 10
-44.8385
 20
72.5141
 11
-44.5139
 21
72.6587
  0
LINE
  8
0
 10
-44.5139
 20
72.6587
 11
-44.1662
 21
72.7326
  0
LINE
  8
0
 10
-44.1662
 20
72.7326
 11
-43.8108
 21
72.7326
  0
LINE
  8
0
 10
-43.8108
 20
72.7326
 11
-43.4632
 21
72.6587
  0
LINE
  8
0
 10
-43.4632
 20
72.6587
 11
-43.1385
 21
72.5141
  0
LINE
  8
0
 10
-43.1385
 20
72.5141
 11
-42.851
 21
72.3052
  0
LINE
  8
0
 10
-42.851
 20
72.3052
 11
-42.6132
 21
72.0411
  0
LINE
  8
0
 10
-42.6132
 20
72.0411
 11
-42.4355
 21
71.7333
  0
LINE
  8
0
 10
-42.4355
 20
71.7333
 11
-42.3257
 21
71.3953
  0
LINE
  8
0
 10
-42.3257
 20
71.3953
 11
-42.2885
 21
71.0419
  0
LINE
  8
0
 10
-42.2885
 20
71.0419
 11
-42.3257
 21
70.6884
  0
LINE
  8
0
 10
-42.3257
 20
70.6884
 11
-42.4355
 21
70.3504
  0
LINE
  8
0
 10
-42.4355
 20
70.3504
 11
-42.6132
 21
70.0427
  0
LINE
  8
0
 10
-42.6132
 20
70.0427
 11
-42.851
 21
69.7785
  0
LINE
  8
0
 10
-42.851
 20
69.7785
 11
-43.1385
 21
69.5697
  0
LINE
  8
0
 10
-43.1385
 20
69.5697
 11
-43.4632
 21
69.4251
  0
LINE
  8
0
 10
-43.4632
 20
69.4251
 11
-43.8108
 21
69.3512
  0
LINE
  8
0
 10
-43.8108
 20
69.3512
 11
-44.1662
 21
69.3512
  0
LINE
  8
0
 10
-44.1662
 20
69.3512
 11
-44.5139
 21
69.4251
  0
LINE
  8
0
 10
-44.5139
 20
69.4251
 11
-44.8385
 21
69.5697
  0
LINE
  8
0
 10
-44.8385
 20
69.5697
 11
-45.126
 21
69.7785
  0
LINE
  8
0
 10
-45.126
 20
69.7785
 11
-45.3639
 21
70.0427
  0
LINE
  8
0
 10
-45.3639
 20
70.0427
 11
-45.5416
 21
70.3504
  0
LINE
  8
0
 10
-45.5416
 20
70.3504
 11
-45.6514
 21
70.6884
  0
LINE
  8
0
 10
-45.6514
 20
70.6884
 11
-45.6885
 21
71.0419
  0
LINE
  8
0
 10
-17.091
 20
-72.4146
 11
-17.0539
 21
-72.0612
  0
LINE
  8
0
 10
-17.0539
 20
-72.0612
 11
-16.944
 21
-71.7232
  0
LINE
  8
0
 10
-16.944
 20
-71.7232
 11
-16.7663
 21
-71.4154
  0
LINE
  8
0
 10
-16.7663
 20
-71.4154
 11
-16.5285
 21
-71.1513
  0
LINE
  8
0
 10
-16.5285
 20
-71.1513
 11
-16.241
 21
-70.9424
  0
LINE
  8
0
 10
-16.241
 20
-70.9424
 11
-15.9163
 21
-70.7978
  0
LINE
  8
0
 10
-15.9163
 20
-70.7978
 11
-15.5687
 21
-70.7239
  0
LINE
  8
0
 10
-15.5687
 20
-70.7239
 11
-15.2133
 21
-70.7239
  0
LINE
  8
0
 10
-15.2133
 20
-70.7239
 11
-14.8657
 21
-70.7978
  0
LINE
  8
0
 10
-14.8657
 20
-70.7978
 11
-14.541
 21
-70.9424
  0
LINE
  8
0
 10
-14.541
 20
-70.9424
 11
-14.2535
 21
-71.1513
  0
LINE
  8
0
 10
-14.2535
 20
-71.1513
 11
-14.0157
 21
-71.4154
  0
LINE
  8
0
 10
-14.0157
 20
-71.4154
 11
-13.838
 21
-71.7232
  0
LINE
  8
0
 10
-13.838
 20
-71.7232
 11
-13.7282
 21
-72.0612
  0
LINE
  8
0
 10
-13.7282
 20
-72.0612
 11
-13.691
 21
-72.4146
  0
LINE
  8
0
 10
-13.691
 20
-72.4146
 11
-13.7282
 21
-72.7681
  0
LINE
  8
0
 10
-13.7282
 20
-72.7681
 11
-13.838
 21
-73.1061
  0
LINE
  8
0
 10
-13.838
 20
-73.1061
 11
-14.0157
 21
-73.4139
  0
LINE
  8
0
 10
-14.0157
 20
-73.4139
 11
-14.2535
 21
-73.678
  0
LINE
  8
0
 10
-14.2535
 20
-73.678
 11
-14.541
 21
-73.8869
  0
LINE
  8
0
 10
-14.541
 20
-73.8869
 11
-14.8657
 21
-74.0314
  0
LINE
  8
0
 10
-14.8657
 20
-74.0314
 11
-15.2133
 21
-74.1053
  0
LINE
  8
0
 10
-15.2133
 20
-74.1053
 11
-15.5687
 21
-74.1053
  0
LINE
  8
0
 10
-15.5687
 20
-74.1053
 11
-15.9163
 21
-74.0314
  0
LINE
  8
0
 10
-15.9163
 20
-74.0314
 11
-16.241
 21
-73.8869
  0
LINE
  8
0
 10
-16.241
 20
-73.8869
 11
-16.5285
 21
-73.678
  0
LINE
  8
0
 10
-16.5285
 20
-73.678
 11
-16.7663
 21
-73.4139
  0
LINE
  8
0
 10
-16.7663
 20
-73.4139
 11
-16.944
 21
-73.1061
  0
LINE
  8
0
 10
-16.944
 20
-73.1061
 11
-17.0539
 21
-72.7681
  0
LINE
  8
0
 10
-17.0539
 20
-72.7681
 11
-17.091
 21
-72.4146
  0
LINE
  8
0
 10
6.69969
 20
82.1177
 11
6.73684
 21
82.4712
  0
LINE
  8
0
 10
6.73684
 20
82.4712
 11
6.84666
 21
82.8092
  0
LINE
  8
0
 10
6.84666
 20
82.8092
 11
7.02436
 21
83.117
  0
LINE
  8
0
 10
7.02436
 20
83.117
 11
7.26217
 21
83.3811
  0
LINE
  8
0
 10
7.26217
 20
83.3811
 11
7.54969
 21
83.59
  0
LINE
  8
0
 10
7.54969
 20
83.59
 11
7.87436
 21
83.7345
  0
LINE
  8
0
 10
7.87436
 20
83.7345
 11
8.22199
 21
83.8084
  0
LINE
  8
0
 10
8.22199
 20
83.8084
 11
8.57739
 21
83.8084
  0
LINE
  8
0
 10
8.57739
 20
83.8084
 11
8.92502
 21
83.7345
  0
LINE
  8
0
 10
8.92502
 20
83.7345
 11
9.24969
 21
83.59
  0
LINE
  8
0
 10
9.24969
 20
83.59
 11
9.53721
 21
83.3811
  0
LINE
  8
0
 10
9.53721
 20
83.3811
 11
9.77502
 21
83.117
  0
LINE
  8
0
 10
9.77502
 20
83.117
 11
9.95272
 21
82.8092
  0
LINE
  8
0
 10
9.95272
 20
82.8092
 11
10.0625
 21
82.4712
  0
LINE
  8
0
 10
10.0625
 20
82.4712
 11
10.0997
 21
82.1177
  0
LINE
  8
0
 10
10.0997
 20
82.1177
 11
10.0625
 21
81.7643
  0
LINE
  8
0
 10
10.0625
 20
81.7643
 11
9.95272
 21
81.4263
  0
LINE
  8
0
 10
9.95272
 20
81.4263
 11
9.77502
 21
81.1185
  0
LINE
  8
0
 10
9.77502
 20
81.1185
 11
9.53721
 21
80.8544
  0
LINE
  8
0
 10
9.53721
 20
80.8544
 11
9.24969
 21
80.6455
  0
LINE
  8
0
 10
9.24969
 20
80.6455
 11
8.92502
 21
80.5009
  0
LINE
  8
0
 10
8.92502
 20
80.5009
 11
8.57739
 21
80.427
  0
LINE
  8
0
 10
8.57739
 20
80.427
 11
8.22199
 21
80.427
  0
LINE
  8
0
 10
8.22199
 20
80.427
 11
7.87436
 21
80.5009
  0
LINE
  8
0
 10
7.87436
 20
80.5009
 11
7.54969
 21
80.6455
  0
LINE
  8
0
 10
7.54969
 20
80.6455
 11
7.26217
 21
80.8544
  0
LINE
  8
0
 10
7.26217
 20
80.8544
 11
7.02436
 21
81.1185
  0
LINE
  8
0
 10
7.02436
 20
81.1185
 11
6.84666
 21
81.4263
  0
LINE
  8
0
 10
6.84666
 20
81.4263
 11
6.73684
 21
81.7643
  0
LINE
  8
0
 10
6.73684
 20
81.7643
 11
6.69969
 21
82.1177
  0
LINE
  8
0
 10
76.7453
 20
-43.6631
 11
76.7824
 21
-43.3097
  0
LINE
  8
0
 10
76.7824
 20
-43.3097
 11
76.8922
 21
-42.9717
  0
LINE
  8
0
 10
76.8922
 20
-42.9717
 11
77.0699
 21
-42.6639
  0
LINE
  8
0
 10
77.0699
 20
-42.6639
 11
77.3078
 21
-42.3998
  0
LINE
  8
0
 10
77.3078
 20
-42.3998
 11
77.5953
 21
-42.1909
  0
LINE
  8
0
 10
77.5953
 20
-42.1909
 11
77.9199
 21
-42.0463
  0
LINE
  8
0
 10
77.9199
 20
-42.0463
 11
78.2676
 21
-41.9725
  0
LINE
  8
0
 10
78.2676
 20
-41.9725
 11
78.623
 21
-41.9725
  0
LINE
  8
0
 10
78.623
 20
-41.9725
 11
78.9706
 21
-42.0463
  0
LINE
  8
0
 10
78.9706
 20
-42.0463
 11
79.2953
 21
-42.1909
  0
LINE
  8
0
 10
79.2953
 20
-42.1909
 11
79.5828
 21
-42.3998
  0
LINE
  8
0
 10
79.5828
 20
-42.3998
 11
79.8206
 21
-42.6639
  0
LINE
  8
0
 10
79.8206
 20
-42.6639
 11
79.9983
 21
-42.9717
  0
LINE
  8
0
 10
79.9983
 20
-42.9717
 11
80.1081
 21
-43.3097
  0
LINE
  8
0
 10
80.1081
 20
-43.3097
 11
80.1453
 21
-43.6631
  0
LINE
  8
0
 10
80.1453
 20
-43.6631
 11
80.1081
 21
-44.0166
  0
LINE
  8
0
 10
80.1081
 20
-44.0166
 11
79.9983
 21
-44.3546
  0
LINE
  8
0
 10
79.9983
 20
-44.3546
 11
79.8206
 21
-44.6624
  0
LINE
  8
0
 10
79.8206
 20
-44.6624
 11
79.5828
 21
-44.9265
  0
LINE
  8
0
 10
79.5828
 20
-44.9265
 11
79.2953
 21
-45.1354
  0
LINE
  8
0
 10
79.2953
 20
-45.1354
 11
78.9706
 21
-45.2799
  0
LINE
  8
0
 10
78.9706
 20
-45.2799
 11
78.623
 21
-45.3538
  0
LINE
  8
0
 10
78.623
 20
-45.3538
 11
78.2676
 21
-45.3538
  0
LINE
  8
0
 10
78.2676
 20
-45.3538
 11
77.9199
 21
-45.2799
  0
LINE
  8
0
 10
77.9199
 20
-45.2799
 11
77.5953
 21
-45.1354
  0
LINE
  8
0
 10
77.5953
 20
-45.1354
 11
77.3078
 21
-44.9265
  0
LINE
  8
0
 10
77.3078
 20
-44.9265
 11
77.0699
 21
-44.6624
  0
LINE
  8
0
 10
77.0699
 20
-44.6624
 11
76.8922
 21
-44.3546
  0
LINE
  8
0
 10
76.8922
 20
-44.3546
 11
76.7824
 21
-44.0166
  0
LINE
  8
0
 10
76.7824
 20
-44.0166
 11
76.7453
 21
-43.6631
  0
LINE
  8
0
 10
82.7453
 20
60.1987
 11
82.7824
 21
60.5522
  0
LINE
  8
0
 10
82.7824
 20
60.5522
 11
82.8922
 21
60.8902
  0
LINE
  8
0
 10
82.8922
 20
60.8902
 11
83.0699
 21
61.198
  0
LINE
  8
0
 10
83.0699
 20
61.198
 11
83.3078
 21
61.4621
  0
LINE
  8
0
 10
83.3078
 20
61.4621
 11
83.5953
 21
61.671
  0
LINE
  8
0
 10
83.5953
 20
61.671
 11
83.9199
 21
61.8155
  0
LINE
  8
0
 10
83.9199
 20
61.8155
 11
84.2676
 21
61.8894
  0
LINE
  8
0
 10
84.2676
 20
61.8894
 11
84.623
 21
61.8894
  0
LINE
  8
0
 10
84.623
 20
61.8894
 11
84.9706
 21
61.8155
  0
LINE
  8
0
 10
84.9706
 20
61.8155
 11
85.2953
 21
61.671
  0
LINE
  8
0
 10
85.2953
 20
61.671
 11
85.5828
 21
61.4621
  0
LINE
  8
0
 10
85.5828
 20
61.4621
 11
85.8206
 21
61.198
  0
LINE
  8
0
 10
85.8206
 20
61.198
 11
85.9983
 21
60.8902
  0
LINE
  8
0
 10
85.9983
 20
60.8902
 11
86.1081
 21
60.5522
  0
LINE
  8
0
 10
86.1081
 20
60.5522
 11
86.1453
 21
60.1987
  0
LINE
  8
0
 10
86.1453
 20
60.1987
 11
86.1081
 21
59.8453
  0
LINE
  8
0
 10
86.1081
 20
59.8453
 11
85.9983
 21
59.5073
  0
LINE
  8
0
 10
85.9983
 20
59.5073
 11
85.8206
 21
59.1995
  0
LINE
  8
0
 10
85.8206
 20
59.1995
 11
85.5828
 21
58.9354
  0
LINE
  8
0
 10
85.5828
 20
58.9354
 11
85.2953
 21
58.7265
  0
LINE
  8
0
 10
85.2953
 20
58.7265
 11
84.9706
 21
58.582
  0
LINE
  8
0
 10
84.9706
 20
58.582
 11
84.623
 21
58.5081
  0
LINE
  8
0
 10
84.623
 20
58.5081
 11
84.2676
 21
58.5081
  0
LINE
  8
0
 10
84.2676
 20
58.5081
 11
83.9199
 21
58.582
  0
LINE
  8
0
 10
83.9199
 20
58.582
 11
83.5953
 21
58.7265
  0
LINE
  8
0
 10
83.5953
 20
58.7265
 11
83.3078
 21
58.9354
  0
LINE
  8
0
 10
83.3078
 20
58.9354
 11
83.0699
 21
59.1995
  0
LINE
  8
0
 10
83.0699
 20
59.1995
 11
82.8922
 21
59.5073
  0
LINE
  8
0
 10
82.8922
 20
59.5073
 11
82.7824
 21
59.8453
  0
LINE
  8
0
 10
82.7824
 20
59.8453
 11
82.7453
 21
60.1987
  0
ENDSEC
  0
SECTION
  2
OBJECTS
  0
DICTIONARY
  0
ENDSEC
  0
EOF
