  0
SECTION
  2
BLOCKS
  0
ENDSEC
  0
SECTION
  2
ENTITIES
  0
LINE
  8
0
 10
-71.2754
 20
-57.5737
 11
-66.3369
 21
-63.8521
  0
LINE
  8
0
 10
-66.3369
 20
-63.8521
 11
-60.6945
 21
-71.0254
  0
LINE
  8
0
 10
-60.6945
 20
-71.0254
 11
-59.4419
 21
-74.137
  0
LINE
  8
0
 10
-59.4419
 20
-74.137
 11
-58.9541
 21
-75.3487
  0
LINE
  8
0
 10
-58.9541
 20
-75.3487
 11
-58.9368
 21
-75.3706
  0
LINE
  8
0
 10
-58.9368
 20
-75.3706
 11
-58.8923
 21
-75.4268
  0
LINE
  8
0
 10
-58.8923
 20
-75.4268
 11
-58.8923
 21
-75.4268
  0
LINE
  8
0
 10
-58.8923
 20
-75.4268
 11
-58.8923
 21
-75.4268
  0
LINE
  8
0
 10
-58.8923
 20
-75.4268
 11
-55.9591
 21
-79.1323
  0
LINE
  8
0
 10
-55.9591
 20
-79.1323
 11
-48.2683
 21
-88.8484
  0
LINE
  8
0
 10
-48.2683
 20
-88.8484
 11
-42.4786
 21
-90.2122
  0
LINE
  8
0
 10
-42.4786
 20
-90.2122
 11
-39.1864
 21
-90.9877
  0
LINE
  8
0
 10
-39.1864
 20
-90.9877
 11
-39.1432
 21
-90.9575
  0
LINE
  8
0
 10
-39.1432
 20
-90.9575
 11
-39.1185
 21
-90.9402
  0
LINE
  8
0
 10
-39.1185
 20
-90.9402
 11
-39.1185
 21
-90.9402
  0
LINE
  8
0
 10
-39.1185
 20
-90.9402
 11
-34.8303
 21
-87.9375
  0
LINE
  8
0
 10
-34.8303
 20
-87.9375
 11
-27.3454
 21
-82.6966
  0
LINE
  8
0
 10
-27.3454
 20
-82.6966
 11
-27.2473
 21
-82.8505
  0
LINE
  8
0
 10
-27.2473
 20
-82.8505
 11
-27.1965
 21
-82.8268
  0
LINE
  8
0
 10
-27.1965
 20
-82.8268
 11
-27.1965
 21
-82.8268
  0
LINE
  8
0
 10
-27.1965
 20
-82.8268
 11
-27.1639
 21
-82.8116
  0
LINE
  8
0
 10
-27.1639
 20
-82.8116
 11
-22.6216
 21
-80.6935
  0
LINE
  8
0
 10
-22.6216
 20
-80.6935
 11
-12.4018
 21
-75.9279
  0
LINE
  8
0
 10
-12.4018
 20
-75.9279
 11
-11.5439
 21
-74.931
  0
LINE
  8
0
 10
-11.5439
 20
-74.931
 11
-11.1627
 21
-74.4879
  0
LINE
  8
0
 10
-11.1627
 20
-74.4879
 11
-9.9902
 21
-68.8846
  0
LINE
  8
0
 10
-9.9902
 20
-68.8846
 11
-7.15292
 21
-55.325
  0
LINE
  8
0
 10
-7.15292
 20
-55.325
 11
9.46117
 21
-59.0708
  0
LINE
  8
0
 10
9.46117
 20
-59.0708
 11
15.0645
 21
-60.3341
  0
LINE
  8
0
 10
15.0645
 20
-60.3341
 11
20.6914
 21
-60.3341
  0
LINE
  8
0
 10
20.6914
 20
-60.3341
 11
20.7263
 21
-60.3341
  0
LINE
  8
0
 10
20.7263
 20
-60.3341
 11
32.589
 21
-60.3341
  0
LINE
  8
0
 10
32.589
 20
-60.3341
 11
35.3045
 21
-54.2374
  0
LINE
  8
0
 10
35.3045
 20
-54.2374
 11
36.6004
 21
-51.3276
  0
LINE
  8
0
 10
36.6004
 20
-51.3276
 11
44.8434
 21
-51.3276
  0
LINE
  8
0
 10
44.8434
 20
-51.3276
 11
54.1519
 21
-51.3276
  0
LINE
  8
0
 10
54.1519
 20
-51.3276
 11
55.6587
 21
-51.3276
  0
LINE
  8
0
 10
55.6587
 20
-51.3276
 11
75.0927
 21
-51.3276
  0
LINE
  8
0
 10
75.0927
 20
-51.3276
 11
78.713
 21
-47.8307
  0
LINE
  8
0
 10
78.713
 20
-47.8307
 11
82.0927
 21
-44.5661
  0
LINE
  8
0
 10
82.0927
 20
-44.5661
 11
88.0433
 21
-26.745
  0
LINE
  8
0
 10
88.0433
 20
-26.745
 11
90.1536
 21
-20.425
  0
LINE
  8
0
 10
90.1536
 20
-20.425
 11
90.1536
 21
-1.54526
  0
LINE
  8
0
 10
90.1536
 20
-1.54526
 11
90.1536
 21
4.11178
  0
LINE
  8
0
 10
90.1536
 20
4.11178
 11
90.1536
 21
9.16698
  0
LINE
  8
0
 10
90.1536
 20
9.16698
 11
90.1536
 21
20.3062
  0
LINE
  8
0
 10
90.1536
 20
20.3062
 11
90.1536
 21
23.6939
  0
LINE
  8
0
 10
90.1536
 20
23.6939
 11
90.1536
 21
23.7504
  0
LINE
  8
0
 10
90.1536
 20
23.7504
 11
90.1536
 21
27.5391
  0
LINE
  8
0
 10
90.1536
 20
27.5391
 11
90.1536
 21
35.3874
  0
LINE
  8
0
 10
90.1536
 20
35.3874
 11
90.1536
 21
42.056
  0
LINE
  8
0
 10
90.1536
 20
42.056
 11
90.1536
 21
46.1932
  0
LINE
  8
0
 10
90.1536
 20
46.1932
 11
90.1536
 21
46.2254
  0
LINE
  8
0
 10
90.1536
 20
46.2254
 11
90.1536
 21
48.262
  0
LINE
  8
0
 10
90.1536
 20
48.262
 11
90.1536
 21
56.7011
  0
LINE
  8
0
 10
90.1536
 20
56.7011
 11
90.1536
 21
60.1264
  0
LINE
  8
0
 10
90.1536
 20
60.1264
 11
88.7939
 21
61.0878
  0
LINE
  8
0
 10
88.7939
 20
61.0878
 11
83.1536
 21
65.0761
  0
LINE
  8
0
 10
83.1536
 20
65.0761
 11
78.6729
 21
65.1992
  0
LINE
  8
0
 10
78.6729
 20
65.1992
 11
77.5927
 21
65.2289
  0
LINE
  8
0
 10
77.5927
 20
65.2289
 11
57.4212
 21
65.2289
  0
LINE
  8
0
 10
57.4212
 20
65.2289
 11
56.8617
 21
65.2289
  0
LINE
  8
0
 10
56.8617
 20
65.2289
 11
42.6284
 21
65.2289
  0
LINE
  8
0
 10
42.6284
 20
65.2289
 11
39.3224
 21
65.2289
  0
LINE
  8
0
 10
39.3224
 20
65.2289
 11
38.5842
 21
67.6974
  0
LINE
  8
0
 10
38.5842
 20
67.6974
 11
35.7339
 21
77.2289
  0
LINE
  8
0
 10
35.7339
 20
77.2289
 11
21.8144
 21
77.2289
  0
LINE
  8
0
 10
21.8144
 20
77.2289
 11
18.3078
 21
77.2289
  0
LINE
  8
0
 10
18.3078
 20
77.2289
 11
15.7903
 21
79.5029
  0
LINE
  8
0
 10
15.7903
 20
79.5029
 11
15.1859
 21
80.0489
  0
LINE
  8
0
 10
15.1859
 20
80.0489
 11
1.59183
 21
80.0489
  0
LINE
  8
0
 10
1.59183
 20
80.0489
 11
1.56971
 21
80.0489
  0
LINE
  8
0
 10
1.56971
 20
80.0489
 11
-2.00266
 21
80.0489
  0
LINE
  8
0
 10
-2.00266
 20
80.0489
 11
-2.83809
 21
77.2289
  0
LINE
  8
0
 10
-2.83809
 20
77.2289
 11
-16.4751
 21
77.2289
  0
LINE
  8
0
 10
-16.4751
 20
77.2289
 11
-19.383
 21
77.2289
  0
LINE
  8
0
 10
-19.383
 20
77.2289
 11
-21.1154
 21
77.2289
  0
LINE
  8
0
 10
-21.1154
 20
77.2289
 11
-21.4417
 21
77.2289
  0
LINE
  8
0
 10
-21.4417
 20
77.2289
 11
-34.9683
 21
77.2289
  0
LINE
  8
0
 10
-34.9683
 20
77.2289
 11
-34.9841
 21
77.2289
  0
LINE
  8
0
 10
-34.9841
 20
77.2289
 11
-37.4929
 21
77.2289
  0
LINE
  8
0
 10
-37.4929
 20
77.2289
 11
-44.9428
 21
73.7356
  0
LINE
  8
0
 10
-44.9428
 20
73.7356
 11
-46.1576
 21
73.166
  0
LINE
  8
0
 10
-46.1576
 20
73.166
 11
-48.496
 21
67.3199
  0
LINE
  8
0
 10
-48.496
 20
67.3199
 11
-48.9576
 21
66.166
  0
LINE
  8
0
 10
-48.9576
 20
66.166
 11
-49.9652
 21
63.7816
  0
LINE
  8
0
 10
-49.9652
 20
63.7816
 11
-53.993
 21
54.2512
  0
LINE
  8
0
 10
-53.993
 20
54.2512
 11
-55.1256
 21
50.7586
  0
LINE
  8
0
 10
-55.1256
 20
50.7586
 11
-55.4089
 21
49.8848
  0
LINE
  8
0
 10
-55.4089
 20
49.8848
 11
-58.2114
 21
38.3994
  0
LINE
  8
0
 10
-58.2114
 20
38.3994
 11
-58.9695
 21
35.2923
  0
LINE
  8
0
 10
-58.9695
 20
35.2923
 11
-59.2068
 21
33.9369
  0
LINE
  8
0
 10
-59.2068
 20
33.9369
 11
-59.8596
 21
30.2075
  0
LINE
  8
0
 10
-59.8596
 20
30.2075
 11
-60.4081
 21
25.3637
  0
LINE
  8
0
 10
-60.4081
 20
25.3637
 11
-61.7027
 21
13.9316
  0
LINE
  8
0
 10
-61.7027
 20
13.9316
 11
-61.9159
 21
10.0989
  0
LINE
  8
0
 10
-61.9159
 20
10.0989
 11
-62.0063
 21
8.47499
  0
LINE
  8
0
 10
-62.0063
 20
8.47499
 11
-62.0063
 21
-8.47499
  0
LINE
  8
0
 10
-62.0063
 20
-8.47499
 11
-61.9159
 21
-10.0989
  0
LINE
  8
0
 10
-61.9159
 20
-10.0989
 11
-61.7027
 21
-13.9316
  0
LINE
  8
0
 10
-61.7027
 20
-13.9316
 11
-60.4081
 21
-25.3637
  0
LINE
  8
0
 10
-60.4081
 20
-25.3637
 11
-59.8599
 21
-30.2051
  0
LINE
  8
0
 10
-59.8599
 20
-30.2051
 11
-59.8693
 21
-33.6292
  0
LINE
  8
0
 10
-59.8693
 20
-33.6292
 11
-59.8883
 21
-40.5275
  0
LINE
  8
0
 10
-59.8883
 20
-40.5275
 11
-64.686
 21
-43.8869
  0
LINE
  8
0
 10
-64.686
 20
-43.8869
 11
-69.017
 21
-46.9195
  0
LINE
  8
0
 10
-69.017
 20
-46.9195
 11
-69.017
 21
-46.9195
  0
LINE
  8
0
 10
-69.017
 20
-46.9195
 11
-69.0504
 21
-46.9429
  0
LINE
  8
0
 10
-69.0504
 20
-46.9429
 11
-69.8557
 21
-47.7832
  0
LINE
  8
0
 10
-69.8557
 20
-47.7832
 11
-70.7233
 21
-48.6885
  0
LINE
  8
0
 10
-70.7233
 20
-48.6885
 11
-71.0358
 21
-53.7172
  0
LINE
  8
0
 10
-71.0358
 20
-53.7172
 11
-71.2754
 21
-57.5737
  0
LINE
  8
0
 10
-68.0821
 20
-54.8849
 11
-68.0821
 21
-54.8849
  0
LINE
  8
0
 10
-68.0821
 20
-54.8849
 11
-67.8762
 21
-51.5709
  0
LINE
  8
0
 10
-67.8762
 20
-51.5709
 11
-67.8762
 21
-51.5708
  0
LINE
  8
0
 10
-67.8762
 20
-51.5708
 11
-67.725
 21
-49.1387
  0
LINE
  8
0
 10
-67.725
 20
-49.1387
 11
-62.4735
 21
-45.4615
  0
LINE
  8
0
 10
-62.4735
 20
-45.4615
 11
-59.6483
 21
-43.4833
  0
LINE
  8
0
 10
-59.6483
 20
-43.4833
 11
-59.473
 21
-44.0228
  0
LINE
  8
0
 10
-59.473
 20
-44.0228
 11
-59.0969
 21
-44.6742
  0
LINE
  8
0
 10
-59.0969
 20
-44.6742
 11
-59.0916
 21
-44.6835
  0
LINE
  8
0
 10
-59.0916
 20
-44.6835
 11
-59.0844
 21
-44.6915
  0
LINE
  8
0
 10
-59.0844
 20
-44.6915
 11
-58.5811
 21
-45.2505
  0
LINE
  8
0
 10
-58.5811
 20
-45.2505
 11
-58.5724
 21
-45.2568
  0
LINE
  8
0
 10
-58.5724
 20
-45.2568
 11
-57.9639
 21
-45.6989
  0
LINE
  8
0
 10
-57.9639
 20
-45.6989
 11
-57.2767
 21
-46.0048
  0
LINE
  8
0
 10
-57.2767
 20
-46.0048
 11
-57.2669
 21
-46.0092
  0
LINE
  8
0
 10
-57.2669
 20
-46.0092
 11
-57.2564
 21
-46.0115
  0
LINE
  8
0
 10
-57.2564
 20
-46.0115
 11
-56.5207
 21
-46.1678
  0
LINE
  8
0
 10
-56.5207
 20
-46.1678
 11
-55.7578
 21
-46.1678
  0
LINE
  8
0
 10
-55.7578
 20
-46.1678
 11
-55.022
 21
-46.0115
  0
LINE
  8
0
 10
-55.022
 20
-46.0115
 11
-55.0115
 21
-46.0092
  0
LINE
  8
0
 10
-55.0115
 20
-46.0092
 11
-55.0017
 21
-46.0048
  0
LINE
  8
0
 10
-55.0017
 20
-46.0048
 11
-54.3146
 21
-45.6989
  0
LINE
  8
0
 10
-54.3146
 20
-45.6989
 11
-53.7061
 21
-45.2568
  0
LINE
  8
0
 10
-53.7061
 20
-45.2568
 11
-53.6974
 21
-45.2505
  0
LINE
  8
0
 10
-53.6974
 20
-45.2505
 11
-53.1941
 21
-44.6915
  0
LINE
  8
0
 10
-53.1941
 20
-44.6915
 11
-53.1869
 21
-44.6835
  0
LINE
  8
0
 10
-53.1869
 20
-44.6835
 11
-53.1815
 21
-44.6742
  0
LINE
  8
0
 10
-53.1815
 20
-44.6742
 11
-52.8054
 21
-44.0228
  0
LINE
  8
0
 10
-52.8054
 20
-44.0228
 11
-52.573
 21
-43.3075
  0
LINE
  8
0
 10
-52.573
 20
-43.3075
 11
-52.5697
 21
-43.2973
  0
LINE
  8
0
 10
-52.5697
 20
-43.2973
 11
-52.5686
 21
-43.2866
  0
LINE
  8
0
 10
-52.5686
 20
-43.2866
 11
-52.4899
 21
-42.5385
  0
LINE
  8
0
 10
-52.4899
 20
-42.5385
 11
-52.5686
 21
-41.7905
  0
LINE
  8
0
 10
-52.5686
 20
-41.7905
 11
-52.5697
 21
-41.7798
  0
LINE
  8
0
 10
-52.5697
 20
-41.7798
 11
-52.573
 21
-41.7696
  0
LINE
  8
0
 10
-52.573
 20
-41.7696
 11
-52.8054
 21
-41.0542
  0
LINE
  8
0
 10
-52.8054
 20
-41.0542
 11
-53.1815
 21
-40.4029
  0
LINE
  8
0
 10
-53.1815
 20
-40.4029
 11
-53.1869
 21
-40.3935
  0
LINE
  8
0
 10
-53.1869
 20
-40.3935
 11
-53.1941
 21
-40.3856
  0
LINE
  8
0
 10
-53.1941
 20
-40.3856
 11
-53.6974
 21
-39.8266
  0
LINE
  8
0
 10
-53.6974
 20
-39.8266
 11
-54.3059
 21
-39.3845
  0
LINE
  8
0
 10
-54.3059
 20
-39.3845
 11
-54.3146
 21
-39.3782
  0
LINE
  8
0
 10
-54.3146
 20
-39.3782
 11
-54.3244
 21
-39.3738
  0
LINE
  8
0
 10
-54.3244
 20
-39.3738
 11
-55.0115
 21
-39.0679
  0
LINE
  8
0
 10
-55.0115
 20
-39.0679
 11
-55.7472
 21
-38.9115
  0
LINE
  8
0
 10
-55.7472
 20
-38.9115
 11
-55.7578
 21
-38.9092
  0
LINE
  8
0
 10
-55.7578
 20
-38.9092
 11
-56.1993
 21
-38.9092
  0
LINE
  8
0
 10
-56.1993
 20
-38.9092
 11
-56.6486
 21
-38.3381
  0
LINE
  8
0
 10
-56.6486
 20
-38.3381
 11
-56.6887
 21
-38.2871
  0
LINE
  8
0
 10
-56.6887
 20
-38.2871
 11
-56.7311
 21
-38.3169
  0
LINE
  8
0
 10
-56.7311
 20
-38.3169
 11
-57.2814
 21
-33.9244
  0
LINE
  8
0
 10
-57.2814
 20
-33.9244
 11
-57.7596
 21
-30.1075
  0
LINE
  8
0
 10
-57.7596
 20
-30.1075
 11
-58.2439
 21
-25.8311
  0
LINE
  8
0
 10
-58.2439
 20
-25.8311
 11
-59.6027
 21
-13.8316
  0
LINE
  8
0
 10
-59.6027
 20
-13.8316
 11
-59.8265
 21
-9.8087
  0
LINE
  8
0
 10
-59.8265
 20
-9.8087
 11
-59.9063
 21
-8.375
  0
LINE
  8
0
 10
-59.9063
 20
-8.375
 11
-59.9063
 21
8.375
  0
LINE
  8
0
 10
-59.9063
 20
8.375
 11
-59.8265
 21
9.8087
  0
LINE
  8
0
 10
-59.8265
 20
9.8087
 11
-59.6027
 21
13.8316
  0
LINE
  8
0
 10
-59.6027
 20
13.8316
 11
-58.2439
 21
25.8311
  0
LINE
  8
0
 10
-58.2439
 20
25.8311
 11
-57.7596
 21
30.1075
  0
LINE
  8
0
 10
-57.7596
 20
30.1075
 11
-57.5567
 21
31.2667
  0
LINE
  8
0
 10
-57.5567
 20
31.2667
 11
-56.8695
 21
35.1923
  0
LINE
  8
0
 10
-56.8695
 20
35.1923
 11
-54.1207
 21
46.458
  0
LINE
  8
0
 10
-54.1207
 20
46.458
 11
-53.3089
 21
49.7848
  0
LINE
  8
0
 10
-53.3089
 20
49.7848
 11
-52.1683
 21
53.3021
  0
LINE
  8
0
 10
-52.1683
 20
53.3021
 11
-51.893
 21
54.1512
  0
LINE
  8
0
 10
-51.893
 20
54.1512
 11
-51.1198
 21
55.9807
  0
LINE
  8
0
 10
-51.1198
 20
55.9807
 11
-46.8576
 21
66.0659
  0
LINE
  8
0
 10
-46.8576
 20
66.0659
 11
-46.1705
 21
67.7836
  0
LINE
  8
0
 10
-46.1705
 20
67.7836
 11
-45.8671
 21
67.4466
  0
LINE
  8
0
 10
-45.8671
 20
67.4466
 11
-45.2586
 21
67.0045
  0
LINE
  8
0
 10
-45.2586
 20
67.0045
 11
-45.2499
 21
66.9982
  0
LINE
  8
0
 10
-45.2499
 20
66.9982
 11
-45.2401
 21
66.9938
  0
LINE
  8
0
 10
-45.2401
 20
66.9938
 11
-44.553
 21
66.6879
  0
LINE
  8
0
 10
-44.553
 20
66.6879
 11
-43.8172
 21
66.5315
  0
LINE
  8
0
 10
-43.8172
 20
66.5315
 11
-43.8067
 21
66.5293
  0
LINE
  8
0
 10
-43.8067
 20
66.5293
 11
-43.0438
 21
66.5293
  0
LINE
  8
0
 10
-43.0438
 20
66.5293
 11
-43.0333
 21
66.5315
  0
LINE
  8
0
 10
-43.0333
 20
66.5315
 11
-42.2976
 21
66.6879
  0
LINE
  8
0
 10
-42.2976
 20
66.6879
 11
-41.6105
 21
66.9938
  0
LINE
  8
0
 10
-41.6105
 20
66.9938
 11
-41.6006
 21
66.9982
  0
LINE
  8
0
 10
-41.6006
 20
66.9982
 11
-41.5919
 21
67.0045
  0
LINE
  8
0
 10
-41.5919
 20
67.0045
 11
-40.9834
 21
67.4466
  0
LINE
  8
0
 10
-40.9834
 20
67.4466
 11
-40.9762
 21
67.4546
  0
LINE
  8
0
 10
-40.9762
 20
67.4546
 11
-40.4729
 21
68.0136
  0
LINE
  8
0
 10
-40.4729
 20
68.0136
 11
-40.0969
 21
68.665
  0
LINE
  8
0
 10
-40.0969
 20
68.665
 11
-40.0915
 21
68.6743
  0
LINE
  8
0
 10
-40.0915
 20
68.6743
 11
-40.0882
 21
68.6845
  0
LINE
  8
0
 10
-40.0882
 20
68.6845
 11
-39.8557
 21
69.3999
  0
LINE
  8
0
 10
-39.8557
 20
69.3999
 11
-39.7771
 21
70.1479
  0
LINE
  8
0
 10
-39.7771
 20
70.1479
 11
-39.776
 21
70.1586
  0
LINE
  8
0
 10
-39.776
 20
70.1586
 11
-39.7771
 21
70.1693
  0
LINE
  8
0
 10
-39.7771
 20
70.1693
 11
-39.8557
 21
70.9173
  0
LINE
  8
0
 10
-39.8557
 20
70.9173
 11
-40.0882
 21
71.6327
  0
LINE
  8
0
 10
-40.0882
 20
71.6327
 11
-40.0915
 21
71.6429
  0
LINE
  8
0
 10
-40.0915
 20
71.6429
 11
-40.0969
 21
71.6522
  0
LINE
  8
0
 10
-40.0969
 20
71.6522
 11
-40.2458
 21
71.9101
  0
LINE
  8
0
 10
-40.2458
 20
71.9101
 11
-37.94
 21
72.3322
  0
LINE
  8
0
 10
-37.94
 20
72.3322
 11
-36.685
 21
72.562
  0
LINE
  8
0
 10
-36.685
 20
72.562
 11
-22.8616
 21
72.562
  0
LINE
  8
0
 10
-22.8616
 20
72.562
 11
-20.6619
 21
72.562
  0
LINE
  8
0
 10
-20.6619
 20
72.562
 11
-19.0314
 21
72.562
  0
LINE
  8
0
 10
-19.0314
 20
72.562
 11
-18.738
 21
72.562
  0
LINE
  8
0
 10
-18.738
 20
72.562
 11
-4.67538
 21
72.562
  0
LINE
  8
0
 10
-4.67538
 20
72.562
 11
-4.66223
 21
72.562
  0
LINE
  8
0
 10
-4.66223
 20
72.562
 11
-2.11171
 21
72.562
  0
LINE
  8
0
 10
-2.11171
 20
72.562
 11
-2.11171
 21
72.562
  0
LINE
  8
0
 10
-2.11171
 20
72.562
 11
-2.09573
 21
72.562
  0
LINE
  8
0
 10
-2.09573
 20
72.562
 11
-2.07566
 21
72.6206
  0
LINE
  8
0
 10
-2.07566
 20
72.6206
 11
-1.6943
 21
73.7356
  0
LINE
  8
0
 10
-1.6943
 20
73.7356
 11
-1.6901
 21
73.7479
  0
LINE
  8
0
 10
-1.6901
 20
73.7479
 11
-1.60801
 21
73.9879
  0
LINE
  8
0
 10
-1.60801
 20
73.9879
 11
-1.58786
 21
74.0469
  0
LINE
  8
0
 10
-1.58786
 20
74.0469
 11
-1.34861
 21
75.382
  0
LINE
  8
0
 10
-1.34861
 20
75.382
 11
4.65491
 21
75.382
  0
LINE
  8
0
 10
4.65491
 20
75.382
 11
4.62825
 21
75.1283
  0
LINE
  8
0
 10
4.62825
 20
75.1283
 11
4.70688
 21
74.3803
  0
LINE
  8
0
 10
4.70688
 20
74.3803
 11
4.708
 21
74.3696
  0
LINE
  8
0
 10
4.708
 20
74.3696
 11
4.94043
 21
73.6543
  0
LINE
  8
0
 10
4.94043
 20
73.6543
 11
4.94375
 21
73.644
  0
LINE
  8
0
 10
4.94375
 20
73.644
 11
4.94913
 21
73.6347
  0
LINE
  8
0
 10
4.94913
 20
73.6347
 11
5.32521
 21
72.9833
  0
LINE
  8
0
 10
5.32521
 20
72.9833
 11
5.3324
 21
72.9754
  0
LINE
  8
0
 10
5.3324
 20
72.9754
 11
5.83569
 21
72.4164
  0
LINE
  8
0
 10
5.83569
 20
72.4164
 11
6.4442
 21
71.9743
  0
LINE
  8
0
 10
6.4442
 20
71.9743
 11
6.4529
 21
71.968
  0
LINE
  8
0
 10
6.4529
 20
71.968
 11
6.46272
 21
71.9636
  0
LINE
  8
0
 10
6.46272
 20
71.9636
 11
7.14985
 21
71.6577
  0
LINE
  8
0
 10
7.14985
 20
71.6577
 11
7.88557
 21
71.5013
  0
LINE
  8
0
 10
7.88557
 20
71.5013
 11
7.89609
 21
71.499
  0
LINE
  8
0
 10
7.89609
 20
71.499
 11
8.65899
 21
71.499
  0
LINE
  8
0
 10
8.65899
 20
71.499
 11
8.66951
 21
71.5013
  0
LINE
  8
0
 10
8.66951
 20
71.5013
 11
9.40523
 21
71.6577
  0
LINE
  8
0
 10
9.40523
 20
71.6577
 11
10.0924
 21
71.9636
  0
LINE
  8
0
 10
10.0924
 20
71.9636
 11
10.1022
 21
71.968
  0
LINE
  8
0
 10
10.1022
 20
71.968
 11
10.1109
 21
71.9743
  0
LINE
  8
0
 10
10.1109
 20
71.9743
 11
10.7194
 21
72.4164
  0
LINE
  8
0
 10
10.7194
 20
72.4164
 11
10.7266
 21
72.4244
  0
LINE
  8
0
 10
10.7266
 20
72.4244
 11
11.2299
 21
72.9833
  0
LINE
  8
0
 10
11.2299
 20
72.9833
 11
11.606
 21
73.6347
  0
LINE
  8
0
 10
11.606
 20
73.6347
 11
11.6113
 21
73.644
  0
LINE
  8
0
 10
11.6113
 20
73.644
 11
11.8438
 21
74.3594
  0
LINE
  8
0
 10
11.8438
 20
74.3594
 11
11.8471
 21
74.3696
  0
LINE
  8
0
 10
11.8471
 20
74.3696
 11
11.8482
 21
74.3803
  0
LINE
  8
0
 10
11.8482
 20
74.3803
 11
11.9268
 21
75.1283
  0
LINE
  8
0
 10
11.9268
 20
75.1283
 11
11.9002
 21
75.382
  0
LINE
  8
0
 10
11.9002
 20
75.382
 11
12.4424
 21
75.382
  0
LINE
  8
0
 10
12.4424
 20
75.382
 11
15.5285
 21
75.382
  0
LINE
  8
0
 10
15.5285
 20
75.382
 11
17.9026
 21
73.132
  0
LINE
  8
0
 10
17.9026
 20
73.132
 11
18.5041
 21
72.562
  0
LINE
  8
0
 10
18.5041
 20
72.562
 11
32.7425
 21
72.562
  0
LINE
  8
0
 10
32.7425
 20
72.562
 11
35.9301
 21
72.562
  0
LINE
  8
0
 10
35.9301
 20
72.562
 11
36.5526
 21
70.3907
  0
LINE
  8
0
 10
36.5526
 20
70.3907
 11
39.3707
 21
60.562
  0
LINE
  8
0
 10
39.3707
 20
60.562
 11
53.8903
 21
60.562
  0
LINE
  8
0
 10
53.8903
 20
60.562
 11
57.0793
 21
60.562
  0
LINE
  8
0
 10
57.0793
 20
60.562
 11
59.3583
 21
60.562
  0
LINE
  8
0
 10
59.3583
 20
60.562
 11
59.3768
 21
60.562
  0
LINE
  8
0
 10
59.3768
 20
60.562
 11
59.8979
 21
60.562
  0
LINE
  8
0
 10
59.8979
 20
60.562
 11
77.4927
 21
60.562
  0
LINE
  8
0
 10
77.4927
 20
60.562
 11
79.9374
 21
60.4948
  0
LINE
  8
0
 10
79.9374
 20
60.4948
 11
79.8041
 21
60.0844
  0
LINE
  8
0
 10
79.8041
 20
60.0844
 11
79.8008
 21
60.0742
  0
LINE
  8
0
 10
79.8008
 20
60.0742
 11
79.7996
 21
60.0635
  0
LINE
  8
0
 10
79.7996
 20
60.0635
 11
79.721
 21
59.3154
  0
LINE
  8
0
 10
79.721
 20
59.3154
 11
79.7996
 21
58.5674
  0
LINE
  8
0
 10
79.7996
 20
58.5674
 11
79.8008
 21
58.5567
  0
LINE
  8
0
 10
79.8008
 20
58.5567
 11
79.8041
 21
58.5465
  0
LINE
  8
0
 10
79.8041
 20
58.5465
 11
80.0365
 21
57.8311
  0
LINE
  8
0
 10
80.0365
 20
57.8311
 11
80.4126
 21
57.1797
  0
LINE
  8
0
 10
80.4126
 20
57.1797
 11
80.418
 21
57.1704
  0
LINE
  8
0
 10
80.418
 20
57.1704
 11
80.4252
 21
57.1624
  0
LINE
  8
0
 10
80.4252
 20
57.1624
 11
80.9285
 21
56.6035
  0
LINE
  8
0
 10
80.9285
 20
56.6035
 11
81.537
 21
56.1614
  0
LINE
  8
0
 10
81.537
 20
56.1614
 11
81.5457
 21
56.1551
  0
LINE
  8
0
 10
81.5457
 20
56.1551
 11
82.2328
 21
55.8491
  0
LINE
  8
0
 10
82.2328
 20
55.8491
 11
82.2426
 21
55.8448
  0
LINE
  8
0
 10
82.2426
 20
55.8448
 11
82.2531
 21
55.8425
  0
LINE
  8
0
 10
82.2531
 20
55.8425
 11
82.9888
 21
55.6861
  0
LINE
  8
0
 10
82.9888
 20
55.6861
 11
83.7518
 21
55.6861
  0
LINE
  8
0
 10
83.7518
 20
55.6861
 11
83.7623
 21
55.6884
  0
LINE
  8
0
 10
83.7623
 20
55.6884
 11
84.498
 21
55.8448
  0
LINE
  8
0
 10
84.498
 20
55.8448
 11
85.1851
 21
56.1507
  0
LINE
  8
0
 10
85.1851
 20
56.1507
 11
85.1949
 21
56.1551
  0
LINE
  8
0
 10
85.1949
 20
56.1551
 11
85.2036
 21
56.1614
  0
LINE
  8
0
 10
85.2036
 20
56.1614
 11
85.8122
 21
56.6035
  0
LINE
  8
0
 10
85.8122
 20
56.6035
 11
86.3154
 21
57.1624
  0
LINE
  8
0
 10
86.3154
 20
57.1624
 11
86.3226
 21
57.1704
  0
LINE
  8
0
 10
86.3226
 20
57.1704
 11
86.328
 21
57.1797
  0
LINE
  8
0
 10
86.328
 20
57.1797
 11
86.7028
 21
57.8289
  0
LINE
  8
0
 10
86.7028
 20
57.8289
 11
87.1132
 21
57.5386
  0
LINE
  8
0
 10
87.1132
 20
57.5386
 11
88.0536
 21
56.8737
  0
LINE
  8
0
 10
88.0536
 20
56.8737
 11
88.0536
 21
47.4252
  0
LINE
  8
0
 10
88.0536
 20
47.4252
 11
88.0536
 21
45.0482
  0
LINE
  8
0
 10
88.0536
 20
45.0482
 11
88.0536
 21
41.1564
  0
LINE
  8
0
 10
88.0536
 20
41.1564
 11
88.0536
 21
39.7674
  0
LINE
  8
0
 10
88.0536
 20
39.7674
 11
88.0536
 21
29.5353
  0
LINE
  8
0
 10
88.0536
 20
29.5353
 11
88.0536
 21
25.276
  0
LINE
  8
0
 10
88.0536
 20
25.276
 11
88.0536
 21
21.5215
  0
LINE
  8
0
 10
88.0536
 20
21.5215
 11
88.0536
 21
19.1231
  0
LINE
  8
0
 10
88.0536
 20
19.1231
 11
88.0536
 21
9.94229
  0
LINE
  8
0
 10
88.0536
 20
9.94229
 11
88.0536
 21
9.90833
  0
LINE
  8
0
 10
88.0536
 20
9.90833
 11
88.0536
 21
2.9681
  0
LINE
  8
0
 10
88.0536
 20
2.9681
 11
88.0536
 21
-0.13132
  0
LINE
  8
0
 10
88.0536
 20
-0.13132
 11
88.0536
 21
-3.67499
  0
LINE
  8
0
 10
88.0536
 20
-3.67499
 11
88.0536
 21
-20.325
  0
LINE
  8
0
 10
88.0536
 20
-20.325
 11
84.5787
 21
-30.2314
  0
LINE
  8
0
 10
84.5787
 20
-30.2314
 11
80.6436
 21
-41.4494
  0
LINE
  8
0
 10
80.6436
 20
-41.4494
 11
80.328
 21
-40.9029
  0
LINE
  8
0
 10
80.328
 20
-40.9029
 11
80.3226
 21
-40.8935
  0
LINE
  8
0
 10
80.3226
 20
-40.8935
 11
80.3154
 21
-40.8856
  0
LINE
  8
0
 10
80.3154
 20
-40.8856
 11
79.8122
 21
-40.3266
  0
LINE
  8
0
 10
79.8122
 20
-40.3266
 11
79.2036
 21
-39.8845
  0
LINE
  8
0
 10
79.2036
 20
-39.8845
 11
79.1949
 21
-39.8782
  0
LINE
  8
0
 10
79.1949
 20
-39.8782
 11
79.1851
 21
-39.8738
  0
LINE
  8
0
 10
79.1851
 20
-39.8738
 11
78.498
 21
-39.5679
  0
LINE
  8
0
 10
78.498
 20
-39.5679
 11
77.7623
 21
-39.4115
  0
LINE
  8
0
 10
77.7623
 20
-39.4115
 11
77.7518
 21
-39.4092
  0
LINE
  8
0
 10
77.7518
 20
-39.4092
 11
76.9888
 21
-39.4092
  0
LINE
  8
0
 10
76.9888
 20
-39.4092
 11
76.2531
 21
-39.5656
  0
LINE
  8
0
 10
76.2531
 20
-39.5656
 11
76.2426
 21
-39.5679
  0
LINE
  8
0
 10
76.2426
 20
-39.5679
 11
76.2328
 21
-39.5722
  0
LINE
  8
0
 10
76.2328
 20
-39.5722
 11
75.5457
 21
-39.8782
  0
LINE
  8
0
 10
75.5457
 20
-39.8782
 11
75.537
 21
-39.8845
  0
LINE
  8
0
 10
75.537
 20
-39.8845
 11
74.9285
 21
-40.3266
  0
LINE
  8
0
 10
74.9285
 20
-40.3266
 11
74.4252
 21
-40.8856
  0
LINE
  8
0
 10
74.4252
 20
-40.8856
 11
74.418
 21
-40.8935
  0
LINE
  8
0
 10
74.418
 20
-40.8935
 11
74.4126
 21
-40.9029
  0
LINE
  8
0
 10
74.4126
 20
-40.9029
 11
74.0365
 21
-41.5542
  0
LINE
  8
0
 10
74.0365
 20
-41.5542
 11
73.8041
 21
-42.2696
  0
LINE
  8
0
 10
73.8041
 20
-42.2696
 11
73.8008
 21
-42.2798
  0
LINE
  8
0
 10
73.8008
 20
-42.2798
 11
73.7996
 21
-42.2905
  0
LINE
  8
0
 10
73.7996
 20
-42.2905
 11
73.721
 21
-43.0385
  0
LINE
  8
0
 10
73.721
 20
-43.0385
 11
73.7996
 21
-43.7866
  0
LINE
  8
0
 10
73.7996
 20
-43.7866
 11
73.8008
 21
-43.7973
  0
LINE
  8
0
 10
73.8008
 20
-43.7973
 11
73.8041
 21
-43.8075
  0
LINE
  8
0
 10
73.8041
 20
-43.8075
 11
74.0365
 21
-44.5228
  0
LINE
  8
0
 10
74.0365
 20
-44.5228
 11
74.4126
 21
-45.1742
  0
LINE
  8
0
 10
74.4126
 20
-45.1742
 11
74.418
 21
-45.1835
  0
LINE
  8
0
 10
74.418
 20
-45.1835
 11
74.4252
 21
-45.1915
  0
LINE
  8
0
 10
74.4252
 20
-45.1915
 11
74.9285
 21
-45.7505
  0
LINE
  8
0
 10
74.9285
 20
-45.7505
 11
74.9372
 21
-45.7568
  0
LINE
  8
0
 10
74.9372
 20
-45.7568
 11
75.5457
 21
-46.1989
  0
LINE
  8
0
 10
75.5457
 20
-46.1989
 11
76.2328
 21
-46.5048
  0
LINE
  8
0
 10
76.2328
 20
-46.5048
 11
76.2426
 21
-46.5092
  0
LINE
  8
0
 10
76.2426
 20
-46.5092
 11
76.2531
 21
-46.5115
  0
LINE
  8
0
 10
76.2531
 20
-46.5115
 11
76.5973
 21
-46.5846
  0
LINE
  8
0
 10
76.5973
 20
-46.5846
 11
74.9927
 21
-48.1345
  0
LINE
  8
0
 10
74.9927
 20
-48.1345
 11
57.3979
 21
-48.1345
  0
LINE
  8
0
 10
57.3979
 20
-48.1345
 11
56.2626
 21
-48.1345
  0
LINE
  8
0
 10
56.2626
 20
-48.1345
 11
56.2231
 21
-48.1345
  0
LINE
  8
0
 10
56.2231
 20
-48.1345
 11
54.5196
 21
-48.1345
  0
LINE
  8
0
 10
54.5196
 20
-48.1345
 11
47.8794
 21
-48.1345
  0
LINE
  8
0
 10
47.8794
 20
-48.1345
 11
36.8323
 21
-48.1345
  0
LINE
  8
0
 10
36.8323
 20
-48.1345
 11
35.6923
 21
-50.5438
  0
LINE
  8
0
 10
35.6923
 20
-50.5438
 11
32.985
 21
-56.2654
  0
LINE
  8
0
 10
32.985
 20
-56.2654
 11
28.3201
 21
-56.2654
  0
LINE
  8
0
 10
28.3201
 20
-56.2654
 11
15.6574
 21
-56.2654
  0
LINE
  8
0
 10
15.6574
 20
-56.2654
 11
-1.08147
 21
-53.0831
  0
LINE
  8
0
 10
-1.08147
 20
-53.0831
 11
-7.33354
 21
-51.8945
  0
LINE
  8
0
 10
-7.33354
 20
-51.8945
 11
-7.35909
 21
-51.899
  0
LINE
  8
0
 10
-7.35909
 20
-51.899
 11
-7.35909
 21
-51.899
  0
LINE
  8
0
 10
-7.35909
 20
-51.899
 11
-7.42867
 21
-51.9113
  0
LINE
  8
0
 10
-7.42867
 20
-51.9113
 11
-8.10446
 21
-52.8391
  0
LINE
  8
0
 10
-8.10446
 20
-52.8391
 11
-8.10448
 21
-52.8391
  0
LINE
  8
0
 10
-8.10448
 20
-52.8391
 11
-8.35255
 21
-53.1797
  0
LINE
  8
0
 10
-8.35255
 20
-53.1797
 11
-9.91867
 21
-59.5752
  0
LINE
  8
0
 10
-9.91867
 20
-59.5752
 11
-9.91877
 21
-59.5756
  0
LINE
  8
0
 10
-9.91877
 20
-59.5756
 11
-12.3259
 21
-69.4055
  0
LINE
  8
0
 10
-12.3259
 20
-69.4055
 11
-12.7376
 21
-68.9482
  0
LINE
  8
0
 10
-12.7376
 20
-68.9482
 11
-13.3461
 21
-68.5061
  0
LINE
  8
0
 10
-13.3461
 20
-68.5061
 11
-13.3548
 21
-68.4997
  0
LINE
  8
0
 10
-13.3548
 20
-68.4997
 11
-13.3646
 21
-68.4954
  0
LINE
  8
0
 10
-13.3646
 20
-68.4954
 11
-14.0518
 21
-68.1894
  0
LINE
  8
0
 10
-14.0518
 20
-68.1894
 11
-14.7875
 21
-68.0331
  0
LINE
  8
0
 10
-14.7875
 20
-68.0331
 11
-14.798
 21
-68.0308
  0
LINE
  8
0
 10
-14.798
 20
-68.0308
 11
-15.5609
 21
-68.0308
  0
LINE
  8
0
 10
-15.5609
 20
-68.0308
 11
-16.2966
 21
-68.1872
  0
LINE
  8
0
 10
-16.2966
 20
-68.1872
 11
-16.3072
 21
-68.1894
  0
LINE
  8
0
 10
-16.3072
 20
-68.1894
 11
-16.9943
 21
-68.4954
  0
LINE
  8
0
 10
-16.9943
 20
-68.4954
 11
-17.0041
 21
-68.4997
  0
LINE
  8
0
 10
-17.0041
 20
-68.4997
 11
-17.0128
 21
-68.5061
  0
LINE
  8
0
 10
-17.0128
 20
-68.5061
 11
-17.6213
 21
-68.9482
  0
LINE
  8
0
 10
-17.6213
 20
-68.9482
 11
-18.1246
 21
-69.5071
  0
LINE
  8
0
 10
-18.1246
 20
-69.5071
 11
-18.1318
 21
-69.5151
  0
LINE
  8
0
 10
-18.1318
 20
-69.5151
 11
-18.1372
 21
-69.5244
  0
LINE
  8
0
 10
-18.1372
 20
-69.5244
 11
-18.5133
 21
-70.1758
  0
LINE
  8
0
 10
-18.5133
 20
-70.1758
 11
-18.5166
 21
-70.186
  0
LINE
  8
0
 10
-18.5166
 20
-70.186
 11
-18.749
 21
-70.9014
  0
LINE
  8
0
 10
-18.749
 20
-70.9014
 11
-18.7501
 21
-70.9121
  0
LINE
  8
0
 10
-18.7501
 20
-70.9121
 11
-18.8287
 21
-71.6601
  0
LINE
  8
0
 10
-18.8287
 20
-71.6601
 11
-18.7501
 21
-72.4082
  0
LINE
  8
0
 10
-18.7501
 20
-72.4082
 11
-18.749
 21
-72.4189
  0
LINE
  8
0
 10
-18.749
 20
-72.4189
 11
-18.7457
 21
-72.4291
  0
LINE
  8
0
 10
-18.7457
 20
-72.4291
 11
-18.5133
 21
-73.1444
  0
LINE
  8
0
 10
-18.5133
 20
-73.1444
 11
-18.5079
 21
-73.1537
  0
LINE
  8
0
 10
-18.5079
 20
-73.1537
 11
-18.1318
 21
-73.8051
  0
LINE
  8
0
 10
-18.1318
 20
-73.8051
 11
-17.6285
 21
-74.3641
  0
LINE
  8
0
 10
-17.6285
 20
-74.3641
 11
-17.6213
 21
-74.3721
  0
LINE
  8
0
 10
-17.6213
 20
-74.3721
 11
-17.6126
 21
-74.3784
  0
LINE
  8
0
 10
-17.6126
 20
-74.3784
 11
-17.0041
 21
-74.8205
  0
LINE
  8
0
 10
-17.0041
 20
-74.8205
 11
-16.9943
 21
-74.8249
  0
LINE
  8
0
 10
-16.9943
 20
-74.8249
 11
-16.8841
 21
-74.8739
  0
LINE
  8
0
 10
-16.8841
 20
-74.8739
 11
-21.8774
 21
-77.2024
  0
LINE
  8
0
 10
-21.8774
 20
-77.2024
 11
-26.4182
 21
-79.3198
  0
LINE
  8
0
 10
-26.4182
 20
-79.3198
 11
-26.5582
 21
-79.143
  0
LINE
  8
0
 10
-26.5582
 20
-79.143
 11
-26.5862
 21
-79.1075
  0
LINE
  8
0
 10
-26.5862
 20
-79.1075
 11
-26.62
 21
-79.0649
  0
LINE
  8
0
 10
-26.62
 20
-79.0649
 11
-26.62
 21
-79.0649
  0
LINE
  8
0
 10
-26.62
 20
-79.0649
 11
-26.6509
 21
-79.0865
  0
LINE
  8
0
 10
-26.6509
 20
-79.0865
 11
-33.203
 21
-83.6743
  0
LINE
  8
0
 10
-33.203
 20
-83.6743
 11
-38.6367
 21
-87.4791
  0
LINE
  8
0
 10
-38.6367
 20
-87.4791
 11
-39.8277
 21
-87.1985
  0
LINE
  8
0
 10
-39.8277
 20
-87.1985
 11
-44.872
 21
-86.0103
  0
LINE
  8
0
 10
-44.872
 20
-86.0103
 11
-45.1216
 21
-85.9594
  0
LINE
  8
0
 10
-45.1216
 20
-85.9594
 11
-45.7784
 21
-85.124
  0
LINE
  8
0
 10
-45.7784
 20
-85.124
 11
-55.6859
 21
-72.6075
  0
LINE
  8
0
 10
-55.6859
 20
-72.6075
 11
-56.931
 21
-69.6783
  0
LINE
  8
0
 10
-56.931
 20
-69.6783
 11
-57.5012
 21
-68.3366
  0
LINE
  8
0
 10
-57.5012
 20
-68.3366
 11
-60.8251
 21
-64.1109
  0
LINE
  8
0
 10
-60.8251
 20
-64.1109
 11
-68.0821
 21
-54.8849
  0
LINE
  8
0
 10
-57.8392
 20
-42.5385
 11
-57.8021
 21
-42.1851
  0
LINE
  8
0
 10
-57.8021
 20
-42.1851
 11
-57.6922
 21
-41.8471
  0
LINE
  8
0
 10
-57.6922
 20
-41.8471
 11
-57.5145
 21
-41.5393
  0
LINE
  8
0
 10
-57.5145
 20
-41.5393
 11
-57.2767
 21
-41.2752
  0
LINE
  8
0
 10
-57.2767
 20
-41.2752
 11
-56.9892
 21
-41.0663
  0
LINE
  8
0
 10
-56.9892
 20
-41.0663
 11
-56.6645
 21
-40.9217
  0
LINE
  8
0
 10
-56.6645
 20
-40.9217
 11
-56.3169
 21
-40.8479
  0
LINE
  8
0
 10
-56.3169
 20
-40.8479
 11
-55.9615
 21
-40.8479
  0
LINE
  8
0
 10
-55.9615
 20
-40.8479
 11
-55.6139
 21
-40.9217
  0
LINE
  8
0
 10
-55.6139
 20
-40.9217
 11
-55.2892
 21
-41.0663
  0
LINE
  8
0
 10
-55.2892
 20
-41.0663
 11
-55.0017
 21
-41.2752
  0
LINE
  8
0
 10
-55.0017
 20
-41.2752
 11
-54.7639
 21
-41.5393
  0
LINE
  8
0
 10
-54.7639
 20
-41.5393
 11
-54.5862
 21
-41.8471
  0
LINE
  8
0
 10
-54.5862
 20
-41.8471
 11
-54.4764
 21
-42.1851
  0
LINE
  8
0
 10
-54.4764
 20
-42.1851
 11
-54.4392
 21
-42.5385
  0
LINE
  8
0
 10
-54.4392
 20
-42.5385
 11
-54.4764
 21
-42.892
  0
LINE
  8
0
 10
-54.4764
 20
-42.892
 11
-54.5862
 21
-43.23
  0
LINE
  8
0
 10
-54.5862
 20
-43.23
 11
-54.7639
 21
-43.5378
  0
LINE
  8
0
 10
-54.7639
 20
-43.5378
 11
-55.0017
 21
-43.8019
  0
LINE
  8
0
 10
-55.0017
 20
-43.8019
 11
-55.2892
 21
-44.0108
  0
LINE
  8
0
 10
-55.2892
 20
-44.0108
 11
-55.6139
 21
-44.1553
  0
LINE
  8
0
 10
-55.6139
 20
-44.1553
 11
-55.9615
 21
-44.2292
  0
LINE
  8
0
 10
-55.9615
 20
-44.2292
 11
-56.3169
 21
-44.2292
  0
LINE
  8
0
 10
-56.3169
 20
-44.2292
 11
-56.6645
 21
-44.1553
  0
LINE
  8
0
 10
-56.6645
 20
-44.1553
 11
-56.9892
 21
-44.0108
  0
LINE
  8
0
 10
-56.9892
 20
-44.0108
 11
-57.2767
 21
-43.8019
  0
LINE
  8
0
 10
-57.2767
 20
-43.8019
 11
-57.5145
 21
-43.5378
  0
LINE
  8
0
 10
-57.5145
 20
-43.5378
 11
-57.6922
 21
-43.23
  0
LINE
  8
0
 10
-57.6922
 20
-43.23
 11
-57.8021
 21
-42.892
  0
LINE
  8
0
 10
-57.8021
 20
-42.892
 11
-57.8392
 21
-42.5385
  0
LINE
  8
0
 10
-45.1253
 20
70.1586
 11
-45.0881
 21
70.512
  0
LINE
  8
0
 10
-45.0881
 20
70.512
 11
-44.9783
 21
70.85
  0
LINE
  8
0
 10
-44.9783
 20
70.85
 11
-44.8006
 21
71.1578
  0
LINE
  8
0
 10
-44.8006
 20
71.1578
 11
-44.5628
 21
71.4219
  0
LINE
  8
0
 10
-44.5628
 20
71.4219
 11
-44.2753
 21
71.6308
  0
LINE
  8
0
 10
-44.2753
 20
71.6308
 11
-43.9506
 21
71.7754
  0
LINE
  8
0
 10
-43.9506
 20
71.7754
 11
-43.603
 21
71.8493
  0
LINE
  8
0
 10
-43.603
 20
71.8493
 11
-43.2476
 21
71.8493
  0
LINE
  8
0
 10
-43.2476
 20
71.8493
 11
-42.9
 21
71.7754
  0
LINE
  8
0
 10
-42.9
 20
71.7754
 11
-42.5753
 21
71.6308
  0
LINE
  8
0
 10
-42.5753
 20
71.6308
 11
-42.2878
 21
71.4219
  0
LINE
  8
0
 10
-42.2878
 20
71.4219
 11
-42.0499
 21
71.1578
  0
LINE
  8
0
 10
-42.0499
 20
71.1578
 11
-41.8723
 21
70.85
  0
LINE
  8
0
 10
-41.8723
 20
70.85
 11
-41.7624
 21
70.512
  0
LINE
  8
0
 10
-41.7624
 20
70.512
 11
-41.7253
 21
70.1586
  0
LINE
  8
0
 10
-41.7253
 20
70.1586
 11
-41.7624
 21
69.8051
  0
LINE
  8
0
 10
-41.7624
 20
69.8051
 11
-41.8723
 21
69.4671
  0
LINE
  8
0
 10
-41.8723
 20
69.4671
 11
-42.0499
 21
69.1593
  0
LINE
  8
0
 10
-42.0499
 20
69.1593
 11
-42.2878
 21
68.8952
  0
LINE
  8
0
 10
-42.2878
 20
68.8952
 11
-42.5753
 21
68.6863
  0
LINE
  8
0
 10
-42.5753
 20
68.6863
 11
-42.9
 21
68.5418
  0
LINE
  8
0
 10
-42.9
 20
68.5418
 11
-43.2476
 21
68.4679
  0
LINE
  8
0
 10
-43.2476
 20
68.4679
 11
-43.603
 21
68.4679
  0
LINE
  8
0
 10
-43.603
 20
68.4679
 11
-43.9506
 21
68.5418
  0
LINE
  8
0
 10
-43.9506
 20
68.5418
 11
-44.2753
 21
68.6863
  0
LINE
  8
0
 10
-44.2753
 20
68.6863
 11
-44.5628
 21
68.8952
  0
LINE
  8
0
 10
-44.5628
 20
68.8952
 11
-44.8006
 21
69.1593
  0
LINE
  8
0
 10
-44.8006
 20
69.1593
 11
-44.9783
 21
69.4671
  0
LINE
  8
0
 10
-44.9783
 20
69.4671
 11
-45.0881
 21
69.8051
  0
LINE
  8
0
 10
-45.0881
 20
69.8051
 11
-45.1253
 21
70.1586
  0
LINE
  8
0
 10
-16.8795
 20
-71.6601
 11
-16.8423
 21
-71.3067
  0
LINE
  8
0
 10
-16.8423
 20
-71.3067
 11
-16.7325
 21
-70.9687
  0
LINE
  8
0
 10
-16.7325
 20
-70.9687
 11
-16.5548
 21
-70.6609
  0
LINE
  8
0
 10
-16.5548
 20
-70.6609
 11
-16.317
 21
-70.3968
  0
LINE
  8
0
 10
-16.317
 20
-70.3968
 11
-16.0295
 21
-70.1879
  0
LINE
  8
0
 10
-16.0295
 20
-70.1879
 11
-15.7048
 21
-70.0433
  0
LINE
  8
0
 10
-15.7048
 20
-70.0433
 11
-15.3572
 21
-69.9694
  0
LINE
  8
0
 10
-15.3572
 20
-69.9694
 11
-15.0018
 21
-69.9694
  0
LINE
  8
0
 10
-15.0018
 20
-69.9694
 11
-14.6541
 21
-70.0433
  0
LINE
  8
0
 10
-14.6541
 20
-70.0433
 11
-14.3295
 21
-70.1879
  0
LINE
  8
0
 10
-14.3295
 20
-70.1879
 11
-14.0419
 21
-70.3968
  0
LINE
  8
0
 10
-14.0419
 20
-70.3968
 11
-13.8041
 21
-70.6609
  0
LINE
  8
0
 10
-13.8041
 20
-70.6609
 11
-13.6264
 21
-70.9687
  0
LINE
  8
0
 10
-13.6264
 20
-70.9687
 11
-13.5166
 21
-71.3067
  0
LINE
  8
0
 10
-13.5166
 20
-71.3067
 11
-13.4795
 21
-71.6601
  0
LINE
  8
0
 10
-13.4795
 20
-71.6601
 11
-13.5166
 21
-72.0136
  0
LINE
  8
0
 10
-13.5166
 20
-72.0136
 11
-13.6264
 21
-72.3516
  0
LINE
  8
0
 10
-13.6264
 20
-72.3516
 11
-13.8041
 21
-72.6594
  0
LINE
  8
0
 10
-13.8041
 20
-72.6594
 11
-14.0419
 21
-72.9235
  0
LINE
  8
0
 10
-14.0419
 20
-72.9235
 11
-14.3295
 21
-73.1324
  0
LINE
  8
0
 10
-14.3295
 20
-73.1324
 11
-14.6541
 21
-73.2769
  0
LINE
  8
0
 10
-14.6541
 20
-73.2769
 11
-15.0018
 21
-73.3508
  0
LINE
  8
0
 10
-15.0018
 20
-73.3508
 11
-15.3572
 21
-73.3508
  0
LINE
  8
0
 10
-15.3572
 20
-73.3508
 11
-15.7048
 21
-73.2769
  0
LINE
  8
0
 10
-15.7048
 20
-73.2769
 11
-16.0295
 21
-73.1324
  0
LINE
  8
0
 10
-16.0295
 20
-73.1324
 11
-16.317
 21
-72.9235
  0
LINE
  8
0
 10
-16.317
 20
-72.9235
 11
-16.5548
 21
-72.6594
  0
LINE
  8
0
 10
-16.5548
 20
-72.6594
 11
-16.7325
 21
-72.3516
  0
LINE
  8
0
 10
-16.7325
 20
-72.3516
 11
-16.8423
 21
-72.0136
  0
LINE
  8
0
 10
-16.8423
 20
-72.0136
 11
-16.8795
 21
-71.6601
  0
LINE
  8
0
 10
6.57754
 20
75.1283
 11
6.61469
 21
75.4818
  0
LINE
  8
0
 10
6.61469
 20
75.4818
 11
6.72451
 21
75.8198
  0
LINE
  8
0
 10
6.72451
 20
75.8198
 11
6.90221
 21
76.1276
  0
LINE
  8
0
 10
6.90221
 20
76.1276
 11
7.14002
 21
76.3917
  0
LINE
  8
0
 10
7.14002
 20
76.3917
 11
7.42754
 21
76.6006
  0
LINE
  8
0
 10
7.42754
 20
76.6006
 11
7.75221
 21
76.7451
  0
LINE
  8
0
 10
7.75221
 20
76.7451
 11
8.09984
 21
76.819
  0
LINE
  8
0
 10
8.09984
 20
76.819
 11
8.45524
 21
76.819
  0
LINE
  8
0
 10
8.45524
 20
76.819
 11
8.80287
 21
76.7451
  0
LINE
  8
0
 10
8.80287
 20
76.7451
 11
9.12754
 21
76.6006
  0
LINE
  8
0
 10
9.12754
 20
76.6006
 11
9.41506
 21
76.3917
  0
LINE
  8
0
 10
9.41506
 20
76.3917
 11
9.65287
 21
76.1276
  0
LINE
  8
0
 10
9.65287
 20
76.1276
 11
9.83057
 21
75.8198
  0
LINE
  8
0
 10
9.83057
 20
75.8198
 11
9.94039
 21
75.4818
  0
LINE
  8
0
 10
9.94039
 20
75.4818
 11
9.97754
 21
75.1283
  0
LINE
  8
0
 10
9.97754
 20
75.1283
 11
9.94039
 21
74.7749
  0
LINE
  8
0
 10
9.94039
 20
74.7749
 11
9.83057
 21
74.4369
  0
LINE
  8
0
 10
9.83057
 20
74.4369
 11
9.65287
 21
74.1291
  0
LINE
  8
0
 10
9.65287
 20
74.1291
 11
9.41506
 21
73.865
  0
LINE
  8
0
 10
9.41506
 20
73.865
 11
9.12754
 21
73.6561
  0
LINE
  8
0
 10
9.12754
 20
73.6561
 11
8.80287
 21
73.5115
  0
LINE
  8
0
 10
8.80287
 20
73.5115
 11
8.45524
 21
73.4377
  0
LINE
  8
0
 10
8.45524
 20
73.4377
 11
8.09984
 21
73.4377
  0
LINE
  8
0
 10
8.09984
 20
73.4377
 11
7.75221
 21
73.5115
  0
LINE
  8
0
 10
7.75221
 20
73.5115
 11
7.42754
 21
73.6561
  0
LINE
  8
0
 10
7.42754
 20
73.6561
 11
7.14002
 21
73.865
  0
LINE
  8
0
 10
7.14002
 20
73.865
 11
6.90221
 21
74.1291
  0
LINE
  8
0
 10
6.90221
 20
74.1291
 11
6.72451
 21
74.4369
  0
LINE
  8
0
 10
6.72451
 20
74.4369
 11
6.61469
 21
74.7749
  0
LINE
  8
0
 10
6.61469
 20
74.7749
 11
6.57754
 21
75.1283
  0
LINE
  8
0
 10
75.6703
 20
-43.0385
 11
75.7075
 21
-42.6851
  0
LINE
  8
0
 10
75.7075
 20
-42.6851
 11
75.8173
 21
-42.3471
  0
LINE
  8
0
 10
75.8173
 20
-42.3471
 11
75.995
 21
-42.0393
  0
LINE
  8
0
 10
75.995
 20
-42.0393
 11
76.2328
 21
-41.7752
  0
LINE
  8
0
 10
76.2328
 20
-41.7752
 11
76.5203
 21
-41.5663
  0
LINE
  8
0
 10
76.5203
 20
-41.5663
 11
76.845
 21
-41.4217
  0
LINE
  8
0
 10
76.845
 20
-41.4217
 11
77.1926
 21
-41.3479
  0
LINE
  8
0
 10
77.1926
 20
-41.3479
 11
77.548
 21
-41.3479
  0
LINE
  8
0
 10
77.548
 20
-41.3479
 11
77.8956
 21
-41.4217
  0
LINE
  8
0
 10
77.8956
 20
-41.4217
 11
78.2203
 21
-41.5663
  0
LINE
  8
0
 10
78.2203
 20
-41.5663
 11
78.5078
 21
-41.7752
  0
LINE
  8
0
 10
78.5078
 20
-41.7752
 11
78.7456
 21
-42.0393
  0
LINE
  8
0
 10
78.7456
 20
-42.0393
 11
78.9233
 21
-42.3471
  0
LINE
  8
0
 10
78.9233
 20
-42.3471
 11
79.0332
 21
-42.6851
  0
LINE
  8
0
 10
79.0332
 20
-42.6851
 11
79.0703
 21
-43.0385
  0
LINE
  8
0
 10
79.0703
 20
-43.0385
 11
79.0332
 21
-43.392
  0
LINE
  8
0
 10
79.0332
 20
-43.392
 11
78.9233
 21
-43.73
  0
LINE
  8
0
 10
78.9233
 20
-43.73
 11
78.7456
 21
-44.0378
  0
LINE
  8
0
 10
78.7456
 20
-44.0378
 11
78.5078
 21
-44.3019
  0
LINE
  8
0
 10
78.5078
 20
-44.3019
 11
78.2203
 21
-44.5108
  0
LINE
  8
0
 10
78.2203
 20
-44.5108
 11
77.8956
 21
-44.6553
  0
LINE
  8
0
 10
77.8956
 20
-44.6553
 11
77.548
 21
-44.7292
  0
LINE
  8
0
 10
77.548
 20
-44.7292
 11
77.1926
 21
-44.7292
  0
LINE
  8
0
 10
77.1926
 20
-44.7292
 11
76.845
 21
-44.6553
  0
LINE
  8
0
 10
76.845
 20
-44.6553
 11
76.5203
 21
-44.5108
  0
LINE
  8
0
 10
76.5203
 20
-44.5108
 11
76.2328
 21
-44.3019
  0
LINE
  8
0
 10
76.2328
 20
-44.3019
 11
75.995
 21
-44.0378
  0
LINE
  8
0
 10
75.995
 20
-44.0378
 11
75.8173
 21
-43.73
  0
LINE
  8
0
 10
75.8173
 20
-43.73
 11
75.7075
 21
-43.392
  0
LINE
  8
0
 10
75.7075
 20
-43.392
 11
75.6703
 21
-43.0385
  0
LINE
  8
0
 10
81.6703
 20
59.3154
 11
81.7075
 21
59.6689
  0
LINE
  8
0
 10
81.7075
 20
59.6689
 11
81.8173
 21
60.0069
  0
LINE
  8
0
 10
81.8173
 20
60.0069
 11
81.995
 21
60.3147
  0
LINE
  8
0
 10
81.995
 20
60.3147
 11
82.2328
 21
60.5788
  0
LINE
  8
0
 10
82.2328
 20
60.5788
 11
82.5203
 21
60.7877
  0
LINE
  8
0
 10
82.5203
 20
60.7877
 11
82.845
 21
60.9322
  0
LINE
  8
0
 10
82.845
 20
60.9322
 11
83.1926
 21
61.0061
  0
LINE
  8
0
 10
83.1926
 20
61.0061
 11
83.548
 21
61.0061
  0
LINE
  8
0
 10
83.548
 20
61.0061
 11
83.8956
 21
60.9322
  0
LINE
  8
0
 10
83.8956
 20
60.9322
 11
84.2203
 21
60.7877
  0
LINE
  8
0
 10
84.2203
 20
60.7877
 11
84.5078
 21
60.5788
  0
LINE
  8
0
 10
84.5078
 20
60.5788
 11
84.7456
 21
60.3147
  0
LINE
  8
0
 10
84.7456
 20
60.3147
 11
84.9233
 21
60.0069
  0
LINE
  8
0
 10
84.9233
 20
60.0069
 11
85.0332
 21
59.6689
  0
LINE
  8
0
 10
85.0332
 20
59.6689
 11
85.0703
 21
59.3154
  0
LINE
  8
0
 10
85.0703
 20
59.3154
 11
85.0332
 21
58.962
  0
LINE
  8
0
 10
85.0332
 20
58.962
 11
84.9233
 21
58.624
  0
LINE
  8
0
 10
84.9233
 20
58.624
 11
84.7456
 21
58.3162
  0
LINE
  8
0
 10
84.7456
 20
58.3162
 11
84.5078
 21
58.0521
  0
LINE
  8
0
 10
84.5078
 20
58.0521
 11
84.2203
 21
57.8432
  0
LINE
  8
0
 10
84.2203
 20
57.8432
 11
83.8956
 21
57.6986
  0
LINE
  8
0
 10
83.8956
 20
57.6986
 11
83.548
 21
57.6247
  0
LINE
  8
0
 10
83.548
 20
57.6247
 11
83.1926
 21
57.6247
  0
LINE
  8
0
 10
83.1926
 20
57.6247
 11
82.845
 21
57.6986
  0
LINE
  8
0
 10
82.845
 20
57.6986
 11
82.5203
 21
57.8432
  0
LINE
  8
0
 10
82.5203
 20
57.8432
 11
82.2328
 21
58.0521
  0
LINE
  8
0
 10
82.2328
 20
58.0521
 11
81.995
 21
58.3162
  0
LINE
  8
0
 10
81.995
 20
58.3162
 11
81.8173
 21
58.624
  0
LINE
  8
0
 10
81.8173
 20
58.624
 11
81.7075
 21
58.962
  0
LINE
  8
0
 10
81.7075
 20
58.962
 11
81.6703
 21
59.3154
  0
ENDSEC
  0
SECTION
  2
OBJECTS
  0
DICTIONARY
  0
ENDSEC
  0
EOF
