  0
SECTION
  2
HEADER
  9
$ACADVER
  1
AC1014
  9
$HANDSEED
  5
FFFF
  9
$MEASUREMENT
 70
     1
  0
ENDSEC
  0
SECTION
  2
TABLES
  0
TABLE
  2
VPORT
  5
8
330
0
100
AcDbSymbolTable
 70
     4
  0
VPORT
  5
2E
330
8
100
AcDbSymbolTableRecord
100
AcDbViewportTableRecord
  2
*ACTIVE
 70
     0
 10
0.0
 20
0.0
 11
1.0
 21
1.0
 12
210.0
 22
148.5
 13
0.0
 23
0.0
 14
10.0
 24
10.0
 15
10.0
 25
10.0
 16
0.0
 26
0.0
 36
1.0
 17
0.0
 27
0.0
 37
0.0
 40
341.0
 41
1.24
 42
50.0
 43
0.0
 44
0.0
 50
0.0
 51
0.0
 71
     0
 72
   100
 73
     1
 74
     3
 75
     0
 76
     0
 77
     0
 78
     0
  0
ENDTAB
  0
TABLE
  2
LTYPE
  5
5
330
0
100
AcDbSymbolTable
 70
     1
  0
LTYPE
  5
14
330
5
100
AcDbSymbolTableRecord
100
AcDbLinetypeTableRecord
  2
BYBLOCK
 70
     0
  3

 72
    65
 73
     0
 40
0.0
  0
LTYPE
  5
15
330
5
100
AcDbSymbolTableRecord
100
AcDbLinetypeTableRecord
  2
BYLAYER
 70
     0
  3

 72
    65
 73
     0
 40
0.0
  0
LTYPE
  5
16
330
5
100
AcDbSymbolTableRecord
100
AcDbLinetypeTableRecord
  2
CONTINUOUS
 70
     0
  3
Solid line
 72
    65
 73
     0
 40
0.0
  0
ENDTAB
  0
TABLE
  2
LAYER
  5
2
100
AcDbSymbolTable
 70
3
  0
LAYER
  5
50
100
AcDbSymbolTableRecord
100
AcDbLayerTableRecord
  2
0
 70
0
  6
CONTINUOUS
  0
LAYER
  5
51
100
AcDbSymbolTableRecord
100
AcDbLayerTableRecord
  2
Layer_1
 70
0
  6
CONTINUOUS
  0
LAYER
  5
52
100
AcDbSymbolTableRecord
100
AcDbLayerTableRecord
  2
bezier_shape
 70
0
  6
CONTINUOUS
  0
ENDTAB
  0
TABLE
  2
STYLE
  5
3
330
0
100
AcDbSymbolTable
 70
     1
  0
STYLE
  5
11
330
3
100
AcDbSymbolTableRecord
100
AcDbTextStyleTableRecord
  2
STANDARD
 70
     0
 40
0.0
 41
1.0
 50
0.0
 71
     0
 42
2.5
  3
txt
  4

  0
ENDTAB
  0
TABLE
  2
VIEW
  5
6
330
0
100
AcDbSymbolTable
 70
     0
  0
ENDTAB
  0
TABLE
  2
UCS
  5
7
330
0
100
AcDbSymbolTable
 70
     0
  0
ENDTAB
  0
TABLE
  2
APPID
  5
9
330
0
100
AcDbSymbolTable
 70
     2
  0
APPID
  5
12
330
9
100
AcDbSymbolTableRecord
100
AcDbRegAppTableRecord
  2
ACAD
 70
     0
  0
ENDTAB
  0
TABLE
  2
DIMSTYLE
  5
A
330
0
100
AcDbSymbolTable
 70
     1
  0
DIMSTYLE
105
27
330
A
100
AcDbSymbolTableRecord
100
AcDbDimStyleTableRecord
  2
ISO-25
 70
     0
  3

  4

  5

  6

  7

 40
1.0
 41
2.5
 42
0.625
 43
3.75
 44
1.25
 45
0.0
 46
0.0
 47
0.0
 48
0.0
140
2.5
141
2.5
142
0.0
143
0.03937007874016
144
1.0
145
0.0
146
1.0
147
0.625
 71
     0
 72
     0
 73
     0
 74
     0
 75
     0
 76
     0
 77
     1
 78
     8
170
     0
171
     3
172
     1
173
     0
174
     0
175
     0
176
     0
177
     0
178
     0
270
     2
271
     2
272
     2
273
     2
274
     3
340
11
275
     0
280
     0
281
     0
282
     0
283
     0
284
     8
285
     0
286
     0
287
     3
288
     0
  0
ENDTAB
  0
TABLE
  2
BLOCK_RECORD
  5
1
330
0
100
AcDbSymbolTable
 70
     1
  0
BLOCK_RECORD
  5
1F
330
1
100
AcDbSymbolTableRecord
100
AcDbBlockTableRecord
  2
*MODEL_SPACE
  0
BLOCK_RECORD
  5
1B
330
1
100
AcDbSymbolTableRecord
100
AcDbBlockTableRecord
  2
*PAPER_SPACE
  0
ENDTAB
  0
ENDSEC
  0
SECTION
  2
BLOCKS
  0
BLOCK
  5
20
330
1F
100
AcDbEntity
  8
0
100
AcDbBlockBegin
  2
*MODEL_SPACE
 70
     0
 10
0.0
 20
0.0
 30
0.0
  3
*MODEL_SPACE
  1

  0
ENDBLK
  5
21
330
1F
100
AcDbEntity
  8
0
100
AcDbBlockEnd
  0
BLOCK
  5
1C
330
1B
100
AcDbEntity
 67
     1
  8
0
100
AcDbBlockBegin
  2
*PAPER_SPACE
  1

  0
ENDBLK
  5
1D
330
1B
100
AcDbEntity
 67
     1
  8
0
100
AcDbBlockEnd
  0
ENDSEC
  0
SECTION
  2
ENTITIES
  0
SPLINE
  5
100
100
AcDbEntity
  8
bezier_shape
 62
1
100
AcDbSpline
 70
0
 71
3
 72
25
 73
21
 74
19
 40
0.000000
 40
0.000000
 40
0.000000
 40
0.000000
 40
10.434589
 40
18.652850
 40
24.697776
 40
29.426524
 40
34.851392
 40
42.428278
 40
51.368873
 40
65.806773
 40
86.514142
 40
112.823327
 40
139.794879
 40
165.788422
 40
193.206228
 40
220.929721
 40
248.960667
 40
265.158123
 40
277.990120
 40
288.193202
 40
288.193202
 40
288.193202
 40
288.193202
 10
97.820645
 20
198.848530
 30
0.0
 10
101.142913
 20
197.690823
 30
0.0
 10
107.081793
 20
195.621310
 30
0.0
 10
115.498516
 20
196.445846
 30
0.0
 10
121.434936
 20
198.729789
 30
0.0
 10
126.112547
 20
201.462336
 30
0.0
 10
131.811657
 20
203.208082
 30
0.0
 10
139.180191
 20
203.820867
 30
0.0
 10
149.426071
 20
201.614327
 30
0.0
 10
161.923522
 20
192.568012
 30
0.0
 10
168.701668
 20
171.666902
 30
0.0
 10
160.707307
 20
146.375950
 30
0.0
 10
138.590998
 20
129.937341
 30
0.0
 10
111.945483
 20
122.874246
 30
0.0
 10
84.840014
 20
128.904214
 30
0.0
 10
60.462360
 20
144.565816
 30
0.0
 10
52.548767
 20
169.751010
 30
0.0
 10
58.081902
 20
188.642620
 30
0.0
 10
67.682326
 20
198.434234
 30
0.0
 10
75.056604
 20
200.817343
 30
0.0
 10
78.322943
 20
201.872909
 30
0.0
 11
97.820645
 21
198.848530
 31
0.0
 11
107.918196
 21
196.217918
 31
0.0
 11
116.105569
 21
196.929771
 31
0.0
 11
121.765590
 21
199.052339
 31
0.0
 11
125.983462
 21
201.190239
 31
0.0
 11
131.152491
 21
202.836544
 31
0.0
 11
138.705470
 21
203.437968
 31
0.0
 11
147.444086
 21
201.548304
 31
0.0
 11
159.119067
 21
193.054318
 31
0.0
 11
166.092490
 21
173.556460
 31
0.0
 11
158.558243
 21
148.349152
 31
0.0
 11
137.597103
 21
131.375784
 31
0.0
 11
112.384750
 21
125.051110
 31
0.0
 11
85.500825
 21
130.435413
 31
0.0
 11
63.076755
 21
146.737350
 31
0.0
 11
54.923886
 21
173.556460
 31
0.0
 11
59.743433
 21
189.020274
 31
0.0
 11
68.864805
 21
198.045832
 31
0.0
 11
78.322943
 21
201.872909
 31
0.0
  0
LINE
  5
101
100
AcDbEntity
  8
bezier_shape
 62
1
100
AcDbLine
 10
97.820645
 20
198.848530
 30
0.0
 11
97.820645
 21
198.848530
 31
0.0
  0
SPLINE
  5
102
100
AcDbEntity
  8
bezier_shape
 62
1
100
AcDbSpline
 70
0
 71
3
 72
10
 73
6
 74
4
 40
0.000000
 40
0.000000
 40
0.000000
 40
0.000000
 40
6.167987
 40
13.215737
 40
19.990352
 40
19.990352
 40
19.990352
 40
19.990352
 10
78.322943
 20
201.872909
 30
0.0
 10
80.374365
 20
202.052447
 30
0.0
 10
84.769811
 20
202.437132
 30
0.0
 10
91.457721
 20
201.468328
 30
0.0
 10
95.727796
 20
199.710216
 30
0.0
 10
97.820645
 20
198.848530
 30
0.0
 11
78.322943
 21
201.872909
 31
0.0
 11
84.482865
 21
202.188219
 31
0.0
 11
91.456992
 21
201.172175
 31
0.0
 11
97.820645
 21
198.848530
 31
0.0
  0
ENDSEC
  0
SECTION
  2
OBJECTS
  0
DICTIONARY
  5
C
330
0
100
AcDbDictionary
  3
ACAD_GROUP
350
D
  3
ACAD_MLINESTYLE
350
17
  0
DICTIONARY
  5
D
330
C
100
AcDbDictionary
  0
DICTIONARY
  5
1A
330
C
100
AcDbDictionary
  0
DICTIONARY
  5
17
330
C
100
AcDbDictionary
  3
STANDARD
350
18
  0
DICTIONARY
  5
19
330
C
100
AcDbDictionary
  0
ENDSEC
  0
EOF
