  0
SECTION
  2
HEADER
  9
$ACADVER
  1
AC1014
  9
$HANDSEED
  5
FFFF
  9
$MEASUREMENT
 70
     1
  0
ENDSEC
  0
SECTION
  2
TABLES
  0
TABLE
  2
VPORT
  5
8
330
0
100
AcDbSymbolTable
 70
     4
  0
VPORT
  5
2E
330
8
100
AcDbSymbolTableRecord
100
AcDbViewportTableRecord
  2
*ACTIVE
 70
     0
 10
0.0
 20
0.0
 11
1.0
 21
1.0
 12
210.0
 22
148.5
 13
0.0
 23
0.0
 14
10.0
 24
10.0
 15
10.0
 25
10.0
 16
0.0
 26
0.0
 36
1.0
 17
0.0
 27
0.0
 37
0.0
 40
341.0
 41
1.24
 42
50.0
 43
0.0
 44
0.0
 50
0.0
 51
0.0
 71
     0
 72
   100
 73
     1
 74
     3
 75
     0
 76
     0
 77
     0
 78
     0
  0
ENDTAB
  0
TABLE
  2
LTYPE
  5
5
330
0
100
AcDbSymbolTable
 70
     1
  0
LTYPE
  5
14
330
5
100
AcDbSymbolTableRecord
100
AcDbLinetypeTableRecord
  2
BYBLOCK
 70
     0
  3

 72
    65
 73
     0
 40
0.0
  0
LTYPE
  5
15
330
5
100
AcDbSymbolTableRecord
100
AcDbLinetypeTableRecord
  2
BYLAYER
 70
     0
  3

 72
    65
 73
     0
 40
0.0
  0
LTYPE
  5
16
330
5
100
AcDbSymbolTableRecord
100
AcDbLinetypeTableRecord
  2
CONTINUOUS
 70
     0
  3
Solid line
 72
    65
 73
     0
 40
0.0
  0
ENDTAB
  0
TABLE
  2
LAYER
  5
2
100
AcDbSymbolTable
 70
3
  0
LAYER
  5
50
100
AcDbSymbolTableRecord
100
AcDbLayerTableRecord
  2
0
 70
0
  6
CONTINUOUS
  0
LAYER
  5
51
100
AcDbSymbolTableRecord
100
AcDbLayerTableRecord
  2
Layer_1
 70
0
  6
CONTINUOUS
  0
LAYER
  5
52
100
AcDbSymbolTableRecord
100
AcDbLayerTableRecord
  2
bezier_shape
 70
0
  6
CONTINUOUS
  0
ENDTAB
  0
TABLE
  2
STYLE
  5
3
330
0
100
AcDbSymbolTable
 70
     1
  0
STYLE
  5
11
330
3
100
AcDbSymbolTableRecord
100
AcDbTextStyleTableRecord
  2
STANDARD
 70
     0
 40
0.0
 41
1.0
 50
0.0
 71
     0
 42
2.5
  3
txt
  4

  0
ENDTAB
  0
TABLE
  2
VIEW
  5
6
330
0
100
AcDbSymbolTable
 70
     0
  0
ENDTAB
  0
TABLE
  2
UCS
  5
7
330
0
100
AcDbSymbolTable
 70
     0
  0
ENDTAB
  0
TABLE
  2
APPID
  5
9
330
0
100
AcDbSymbolTable
 70
     2
  0
APPID
  5
12
330
9
100
AcDbSymbolTableRecord
100
AcDbRegAppTableRecord
  2
ACAD
 70
     0
  0
ENDTAB
  0
TABLE
  2
DIMSTYLE
  5
A
330
0
100
AcDbSymbolTable
 70
     1
  0
DIMSTYLE
105
27
330
A
100
AcDbSymbolTableRecord
100
AcDbDimStyleTableRecord
  2
ISO-25
 70
     0
  3

  4

  5

  6

  7

 40
1.0
 41
2.5
 42
0.625
 43
3.75
 44
1.25
 45
0.0
 46
0.0
 47
0.0
 48
0.0
140
2.5
141
2.5
142
0.0
143
0.03937007874016
144
1.0
145
0.0
146
1.0
147
0.625
 71
     0
 72
     0
 73
     0
 74
     0
 75
     0
 76
     0
 77
     1
 78
     8
170
     0
171
     3
172
     1
173
     0
174
     0
175
     0
176
     0
177
     0
178
     0
270
     2
271
     2
272
     2
273
     2
274
     3
340
11
275
     0
280
     0
281
     0
282
     0
283
     0
284
     8
285
     0
286
     0
287
     3
288
     0
  0
ENDTAB
  0
TABLE
  2
BLOCK_RECORD
  5
1
330
0
100
AcDbSymbolTable
 70
     1
  0
BLOCK_RECORD
  5
1F
330
1
100
AcDbSymbolTableRecord
100
AcDbBlockTableRecord
  2
*MODEL_SPACE
  0
BLOCK_RECORD
  5
1B
330
1
100
AcDbSymbolTableRecord
100
AcDbBlockTableRecord
  2
*PAPER_SPACE
  0
ENDTAB
  0
ENDSEC
  0
SECTION
  2
BLOCKS
  0
BLOCK
  5
20
330
1F
100
AcDbEntity
  8
0
100
AcDbBlockBegin
  2
*MODEL_SPACE
 70
     0
 10
0.0
 20
0.0
 30
0.0
  3
*MODEL_SPACE
  1

  0
ENDBLK
  5
21
330
1F
100
AcDbEntity
  8
0
100
AcDbBlockEnd
  0
BLOCK
  5
1C
330
1B
100
AcDbEntity
 67
     1
  8
0
100
AcDbBlockBegin
  2
*PAPER_SPACE
  1

  0
ENDBLK
  5
1D
330
1B
100
AcDbEntity
 67
     1
  8
0
100
AcDbBlockEnd
  0
ENDSEC
  0
SECTION
  2
ENTITIES
  0
SPLINE
  5
100
100
AcDbEntity
  8
bezier_shape
 62
1
100
AcDbSpline
 70
0
 71
3
 72
25
 73
21
 74
19
 40
0.000000
 40
0.000000
 40
0.000000
 40
0.000000
 40
29.578363
 40
52.874221
 40
70.009444
 40
83.413770
 40
98.791347
 40
120.269133
 40
145.612553
 40
186.538885
 40
245.236937
 40
319.814155
 40
396.268948
 40
469.951431
 40
547.671199
 40
626.257477
 40
705.715277
 40
751.629325
 40
788.003489
 40
816.925611
 40
816.925611
 40
816.925611
 40
816.925611
 10
277.286868
 20
563.665124
 30
0.0
 10
286.704321
 20
560.383437
 30
0.0
 10
303.538940
 20
554.517098
 30
0.0
 10
327.397370
 20
556.854367
 30
0.0
 10
344.225014
 20
563.328536
 30
0.0
 10
357.484386
 20
571.074338
 30
0.0
 10
373.639342
 20
576.022908
 30
0.0
 10
394.526526
 20
577.759939
 30
0.0
 10
423.569966
 20
571.505178
 30
0.0
 10
458.995811
 20
545.862082
 30
0.0
 10
478.209452
 20
486.614841
 30
0.0
 10
455.548273
 20
414.923953
 30
0.0
 10
392.856372
 20
368.326320
 30
0.0
 10
317.325778
 20
348.304950
 30
0.0
 10
240.491378
 20
365.397772
 30
0.0
 10
171.389366
 20
409.792863
 30
0.0
 10
148.957134
 20
481.183966
 30
0.0
 10
164.641612
 20
534.734985
 30
0.0
 10
191.855413
 20
562.490743
 30
0.0
 10
212.758879
 20
569.246011
 30
0.0
 10
222.017791
 20
572.238167
 30
0.0
 11
277.286868
 21
563.665124
 31
0.0
 11
305.909847
 21
556.208273
 31
0.0
 11
329.118149
 21
558.226123
 31
0.0
 11
345.162302
 21
564.242851
 31
0.0
 11
357.118475
 21
570.303040
 31
0.0
 11
371.770842
 21
574.969731
 31
0.0
 11
393.180860
 21
576.674555
 31
0.0
 11
417.951741
 21
571.318027
 31
0.0
 11
451.046174
 21
547.240587
 31
0.0
 11
470.813357
 21
491.971068
 31
0.0
 11
449.456438
 21
420.517282
 31
0.0
 11
390.039033
 21
372.403798
 31
0.0
 11
318.570945
 21
354.475587
 31
0.0
 11
242.364544
 21
369.738180
 31
0.0
 11
178.800252
 21
415.948394
 31
0.0
 11
155.689756
 21
491.971068
 31
0.0
 11
169.351463
 21
535.805501
 31
0.0
 11
195.207323
 21
561.389761
 31
0.0
 11
222.017791
 21
572.238167
 31
0.0
  0
LINE
  5
101
100
AcDbEntity
  8
bezier_shape
 62
1
100
AcDbLine
 10
277.286868
 20
563.665124
 30
0.0
 11
277.286868
 21
563.665124
 31
0.0
  0
SPLINE
  5
102
100
AcDbEntity
  8
bezier_shape
 62
1
100
AcDbSpline
 70
0
 71
3
 72
10
 73
6
 74
4
 40
0.000000
 40
0.000000
 40
0.000000
 40
0.000000
 40
17.484058
 40
37.461933
 40
56.665566
 40
56.665566
 40
56.665566
 40
56.665566
 10
222.017791
 20
572.238167
 30
0.0
 10
227.832845
 20
572.747094
 30
0.0
 10
240.292376
 20
573.837538
 30
0.0
 10
259.250232
 20
571.091325
 30
0.0
 10
271.354383
 20
566.107698
 30
0.0
 10
277.286868
 20
563.665124
 30
0.0
 11
222.017791
 21
572.238167
 31
0.0
 11
239.478989
 21
573.131958
 31
0.0
 11
259.248166
 21
570.251835
 31
0.0
 11
277.286868
 21
563.665124
 31
0.0
  0
ENDSEC
  0
SECTION
  2
OBJECTS
  0
DICTIONARY
  5
C
330
0
100
AcDbDictionary
  3
ACAD_GROUP
350
D
  3
ACAD_MLINESTYLE
350
17
  0
DICTIONARY
  5
D
330
C
100
AcDbDictionary
  0
DICTIONARY
  5
1A
330
C
100
AcDbDictionary
  0
DICTIONARY
  5
17
330
C
100
AcDbDictionary
  3
STANDARD
350
18
  0
DICTIONARY
  5
19
330
C
100
AcDbDictionary
  0
ENDSEC
  0
EOF
